<svg width="196" height="60" viewBox="0 0 196 60" fill="none" xmlns="http://www.w3.org/2000/svg">
<g filter="url(#filter0_d_572_1635)">
<path d="M49.271 30.7084C49.271 24.6258 53.3591 20.3124 59.1405 20.3124C60.4487 20.3188 61.7346 20.6484 62.8822 21.2714C64.0298 21.8943 65.0029 22.791 65.7135 23.8804V9.77722H69.4008V40.8858H65.7135V37.5364C64.9885 38.6228 64.0093 39.5191 62.8596 40.1491C61.7099 40.779 60.4236 41.1238 59.1105 41.1541C53.3591 41.1541 49.271 36.8009 49.271 30.7084ZM65.7135 30.7084C65.7135 26.7826 62.7076 23.5226 59.3209 23.5226C55.5434 23.5226 52.9583 26.5043 52.9583 30.7084C52.9583 34.9125 55.5434 37.9339 59.3209 37.9339C62.7376 37.9339 65.7135 34.7237 65.7135 30.7084Z" fill="white"/>
<path d="M74.02 30.8376C74.02 24.7551 78.1081 20.4317 83.8395 20.4317C85.1107 20.4657 86.356 20.7955 87.4751 21.3946C88.5942 21.9936 89.5558 22.8451 90.2822 23.8805V20.3522H93.9695V40.8858H90.2822V37.5861C89.5936 38.6667 88.6434 39.5593 87.5181 40.1825C86.3928 40.8057 85.1282 41.1397 83.8395 41.1542C78.1482 41.1542 74.02 36.8009 74.02 30.8376ZM90.3323 30.8376C90.3323 26.6932 87.3263 23.6519 83.9697 23.6519C80.2824 23.6519 77.7073 26.5639 77.7073 30.8376C77.7073 35.1113 80.2824 37.9737 83.9697 37.9737C87.3063 37.934 90.2822 34.9424 90.3323 30.8376Z" fill="white"/>
<path d="M101.925 50.2283L106.274 39.7031L97.9272 20.3522H101.935L108.208 35.3399L114.219 20.3522H118.227L105.963 50.2283H101.925Z" fill="white"/>
<path d="M128.358 37.8446C130.842 37.8446 132.626 36.791 132.626 35.0319C132.626 33.2727 130.311 32.6962 128.007 31.9011C125.161 30.9072 121.163 29.6947 121.163 25.7689C121.163 22.2903 124.4 20.1335 128.538 20.1335C130.983 20.1335 134.89 21.5449 135.862 25.2024L132.626 26.3056C132.382 25.43 131.844 24.6635 131.1 24.1336C130.356 23.6038 129.452 23.3426 128.538 23.3935C126.404 23.3935 124.851 24.278 124.851 25.7689C124.851 27.4485 126.985 28.025 129.47 28.8598C132.476 29.8537 136.313 31.106 136.313 35.0319C136.313 38.6894 132.937 41.0647 128.358 41.0647C126.676 41.0467 125.031 40.5745 123.599 39.699C122.167 38.8235 121.003 37.5777 120.231 36.0953L123.237 34.3361C123.692 35.3247 124.408 36.1728 125.31 36.7904C126.211 37.4081 127.264 37.7723 128.358 37.8446Z" fill="white"/>
<path d="M144.84 30.0922L153.287 20.3521H158.297L150.281 29.476L158.407 40.8858H153.878L147.656 32.2489L144.86 35.5586V40.8858H141.173V9.77722H144.86L144.84 30.0922Z" fill="white"/>
<path d="M167.325 12.3315C167.325 12.922 167.088 13.4882 166.667 13.9058C166.247 14.3233 165.676 14.5578 165.08 14.5578C164.485 14.5578 163.914 14.3233 163.493 13.9058C163.072 13.4882 162.836 12.922 162.836 12.3315C162.836 11.7411 163.072 11.1748 163.493 10.7573C163.914 10.3398 164.485 10.1052 165.08 10.1052C165.676 10.1052 166.247 10.3398 166.667 10.7573C167.088 11.1748 167.325 11.7411 167.325 12.3315ZM166.924 20.2826V40.856H163.237V20.3124L166.924 20.2826Z" fill="white"/>
<path d="M182.425 23.6121C181.692 23.5961 180.964 23.726 180.283 23.9939C179.602 24.2618 178.982 24.6624 178.46 25.172C177.938 25.6816 177.524 26.2899 177.243 26.9608C176.962 27.6318 176.819 28.3518 176.824 29.0784V40.8858H173.136V20.3521H176.824V23.3338C177.523 22.463 178.399 21.7476 179.395 21.2339C180.391 20.7203 181.485 20.4199 182.605 20.3521C183.734 20.3086 184.86 20.4999 185.91 20.9138C186.96 21.3277 187.911 21.9551 188.702 22.7555C189.492 23.5559 190.106 24.5116 190.502 25.5612C190.898 26.6108 191.068 27.7311 191.002 28.8498V40.8858H187.364V29.0784C187.364 25.7688 185.36 23.6121 182.425 23.6121Z" fill="white"/>
<path d="M35.063 35.807C35.063 40.4783 32.1572 46.1037 26.9569 50.4171C19.4621 56.6786 10.0134 57.8514 5.90526 53.0012C2.39832 48.8766 3.89128 41.7703 9.08155 35.807C5.775 32.0899 4.00149 27.8559 4.00149 24.1686C4.00149 19.4974 6.89722 13.872 12.1075 9.55854C19.6424 3.29708 29.0511 2.16405 33.1993 6.98438C36.6962 11.109 35.2032 18.255 30.023 24.1488C33.3195 27.9156 35.1231 32.1793 35.063 35.807Z" fill="white"/>
</g>
<defs>
<filter id="filter0_d_572_1635" x="0" y="0" width="195.016" height="59.9945" filterUnits="userSpaceOnUse" color-interpolation-filters="sRGB">
<feFlood flood-opacity="0" result="BackgroundImageFix"/>
<feColorMatrix in="SourceAlpha" type="matrix" values="0 0 0 0 0 0 0 0 0 0 0 0 0 0 0 0 0 0 127 0" result="hardAlpha"/>
<feOffset/>
<feGaussianBlur stdDeviation="2"/>
<feComposite in2="hardAlpha" operator="out"/>
<feColorMatrix type="matrix" values="0 0 0 0 0.0666667 0 0 0 0 0.0666667 0 0 0 0 0.0666667 0 0 0 0.24 0"/>
<feBlend mode="normal" in2="BackgroundImageFix" result="effect1_dropShadow_572_1635"/>
<feBlend mode="normal" in="SourceGraphic" in2="effect1_dropShadow_572_1635" result="shape"/>
</filter>
</defs>
</svg>
