<svg width="174" height="48" viewBox="0 0 174 48" fill="none" xmlns="http://www.w3.org/2000/svg">
<path d="M41 24.9334C41 18.8502 45.0878 14.5363 50.8687 14.5363C52.1768 14.5427 53.4626 14.8723 54.6101 15.4953C55.7576 16.1184 56.7306 17.0151 57.4412 18.1047V4H61.1282V35.1118H57.4412V31.7621C56.7162 32.8486 55.7372 33.745 54.5875 34.375C53.4378 35.005 52.1517 35.3499 50.8387 35.3802C45.0878 35.3802 41 31.0265 41 24.9334ZM57.4412 24.9334C57.4412 21.0071 54.4355 17.7469 51.0491 17.7469C47.2719 17.7469 44.687 20.7288 44.687 24.9334C44.687 29.138 47.2719 32.1597 51.0491 32.1597C54.4656 32.1597 57.4412 28.9491 57.4412 24.9334Z" fill="#70BDFB"/>
<path d="M63.7324 25.0627C63.7324 18.9795 67.8202 14.6557 73.5511 14.6557C74.8222 14.6897 76.0674 15.0196 77.1864 15.6187C78.3055 16.2178 79.2669 17.0694 79.9933 18.1048V14.5762H83.6803V35.112H79.9933V31.8119C79.3047 32.8926 78.3546 33.7853 77.2294 34.4086C76.1042 35.0318 74.8397 35.3659 73.5511 35.3803C67.8603 35.3803 63.7324 31.0267 63.7324 25.0627ZM80.0434 25.0627C80.0434 20.9178 77.0377 17.8762 73.6813 17.8762C69.9943 17.8762 67.4194 20.7886 67.4194 25.0627C67.4194 29.3369 69.9943 32.1996 73.6813 32.1996C77.0176 32.1598 79.9933 29.1679 80.0434 25.0627Z" fill="#70BDFB"/>
<path d="M90.73 44.4555L95.0783 33.9291L86.7324 14.5762H90.74L97.0119 29.5655L103.023 14.5762H107.031L94.7677 44.4555H90.73Z" fill="#70BDFB"/>
<path d="M116.858 32.0703C119.343 32.0703 121.126 31.0167 121.126 29.2573C121.126 27.4979 118.812 26.9214 116.507 26.1262C113.662 25.1323 109.664 23.9196 109.664 19.9933C109.664 16.5144 112.9 14.3574 117.038 14.3574C119.483 14.3574 123.39 15.7689 124.362 19.4268L121.126 20.5301C120.882 19.6544 120.344 18.8878 119.6 18.3579C118.857 17.8281 117.952 17.5668 117.038 17.6177C114.904 17.6177 113.351 18.5024 113.351 19.9933C113.351 21.6732 115.485 22.2497 117.97 23.0846C120.976 24.0786 124.813 25.3311 124.813 29.2573C124.813 32.9152 121.437 35.2908 116.858 35.2908C115.176 35.2728 113.531 34.8006 112.1 33.9249C110.668 33.0493 109.504 31.8034 108.732 30.3209L111.738 28.5615C112.193 29.5502 112.909 30.3983 113.81 31.0161C114.712 31.6338 115.765 31.9981 116.858 32.0703Z" fill="#70BDFB"/>
<path d="M131.399 24.3171L139.845 14.576H144.855L136.84 23.7008L144.965 35.1118H140.437L134.215 26.4741L131.419 29.7841V35.1118H127.732V4H131.419L131.399 24.3171Z" fill="#70BDFB"/>
<path d="M152.221 6.55466C152.221 7.14517 151.985 7.7115 151.564 8.12906C151.143 8.54661 150.572 8.78119 149.977 8.78119C149.382 8.78119 148.811 8.54661 148.39 8.12906C147.969 7.7115 147.732 7.14517 147.732 6.55466C147.732 5.96415 147.969 5.39782 148.39 4.98026C148.811 4.56271 149.382 4.32812 149.977 4.32812C150.572 4.32812 151.143 4.56271 151.564 4.98026C151.985 5.39782 152.221 5.96415 152.221 6.55466ZM151.821 14.5066V35.0821H148.133V14.5364L151.821 14.5066Z" fill="#70BDFB"/>
<path d="M165.02 17.8367C164.288 17.8207 163.56 17.9505 162.879 18.2185C162.198 18.4865 161.578 18.8871 161.056 19.3968C160.534 19.9064 160.12 20.5147 159.839 21.1858C159.558 21.8568 159.415 22.5769 159.419 23.3036V35.1122H155.732V14.5764H159.419V17.5583C160.119 16.6874 160.995 15.972 161.991 15.4583C162.987 14.9446 164.08 14.6441 165.2 14.5764C166.329 14.5328 167.455 14.7242 168.505 15.1381C169.555 15.5521 170.506 16.1795 171.297 16.98C172.087 17.7805 172.7 18.7363 173.097 19.786C173.493 20.8357 173.663 21.9561 173.596 23.075V35.1122H169.959V23.3036C169.959 19.9936 167.956 17.8367 165.02 17.8367Z" fill="#70BDFB"/>
<path d="M28.9678 29.3634C28.9678 33.6758 26.258 38.869 21.4085 42.8511C14.4192 48.6315 5.60779 49.7142 1.77675 45.2366C-1.49364 41.4289 -0.10139 34.8686 4.7388 29.3634C1.65528 25.9319 0.00139358 22.0232 0.00139358 18.6192C0.00139358 14.3068 2.70181 9.11357 7.56068 5.1315C14.5874 -0.648922 23.3614 -1.6949 27.2298 2.75511C30.4908 6.56285 29.0986 13.1599 24.2677 18.6008C27.3419 22.0782 29.0238 26.0144 28.9678 29.3634Z" fill="#70BDFB"/>
</svg>
