<svg width="127" height="36" viewBox="0 0 127 36" fill="none" xmlns="http://www.w3.org/2000/svg">
<path d="M30.7417 18.4897C30.7417 14.2782 33.5179 11.2917 37.444 11.2917C38.3323 11.2961 39.2056 11.5243 39.9849 11.9556C40.7642 12.3869 41.425 13.0078 41.9076 13.7621V3.99731H44.4116V25.5363H41.9076V23.2172C41.4153 23.9694 40.7503 24.59 39.9696 25.0262C39.1888 25.4623 38.3153 25.7011 37.4236 25.7221C33.5179 25.7221 30.7417 22.708 30.7417 18.4897ZM41.9076 18.4897C41.9076 15.7715 39.8663 13.5144 37.5665 13.5144C35.0012 13.5144 33.2457 15.5788 33.2457 18.4897C33.2457 21.4005 35.0012 23.4925 37.5665 23.4925C39.8867 23.4925 41.9076 21.2698 41.9076 18.4897Z" fill="#70BDFB"/>
<path d="M47.5483 18.5793C47.5483 14.3678 50.3245 11.3744 54.2166 11.3744C55.0799 11.3979 55.9256 11.6263 56.6855 12.0411C57.4455 12.4558 58.0985 13.0454 58.5918 13.7623V11.3193H61.0958V25.5364H58.5918V23.2518C58.1242 24 57.4789 24.618 56.7147 25.0494C55.9505 25.4809 55.0918 25.7122 54.2166 25.7222C50.3517 25.7222 47.5483 22.7081 47.5483 18.5793ZM58.6258 18.5793C58.6258 15.7097 56.5845 13.604 54.3051 13.604C51.8011 13.604 50.0523 15.6202 50.0523 18.5793C50.0523 21.5383 51.8011 23.5202 54.3051 23.5202C56.5709 23.4926 58.5918 21.4213 58.6258 18.5793Z" fill="#70BDFB"/>
<path d="M66.4981 32.005L69.4512 24.7175L63.7832 11.3193H66.5049L70.7645 21.6966L74.8471 11.3193H77.5688L69.2403 32.005H66.4981Z" fill="#70BDFB"/>
<path d="M84.448 23.4306C86.1355 23.4306 87.3467 22.7012 87.3467 21.4831C87.3467 20.2651 85.7749 19.866 84.2099 19.3155C82.2774 18.6273 79.5625 17.7878 79.5625 15.0696C79.5625 12.6611 81.7603 11.1678 84.5705 11.1678C86.2307 11.1678 88.8844 12.145 89.5445 14.6774L87.3467 15.4412C87.1813 14.835 86.8156 14.3043 86.3105 13.9374C85.8054 13.5706 85.1914 13.3897 84.5705 13.425C83.1212 13.425 82.0665 14.0374 82.0665 15.0696C82.0665 16.2326 83.5158 16.6317 85.2033 17.2098C87.2446 17.8979 89.8507 18.765 89.8507 21.4831C89.8507 24.0155 87.5576 25.6602 84.448 25.6602C83.3059 25.6477 82.1888 25.3208 81.2165 24.7146C80.2443 24.1084 79.4537 23.2458 78.9297 22.2195L80.971 21.0014C81.28 21.6859 81.7663 22.2731 82.3784 22.7007C82.9905 23.1284 83.7057 23.3806 84.448 23.4306Z" fill="#70BDFB"/>
<path d="M95.6413 18.063L101.377 11.3192H104.78L99.336 17.6364L104.854 25.5363H101.779L97.5533 19.5563L95.6549 21.8478V25.5363H93.1509V3.99731H95.6549L95.6413 18.063Z" fill="#70BDFB"/>
<path d="M110.911 5.76593C110.911 6.17475 110.75 6.56682 110.464 6.8559C110.178 7.14498 109.791 7.30738 109.386 7.30738C108.982 7.30738 108.595 7.14498 108.309 6.8559C108.023 6.56682 107.862 6.17475 107.862 5.76593C107.862 5.35712 108.023 4.96504 108.309 4.67597C108.595 4.38689 108.982 4.22449 109.386 4.22449C109.791 4.22449 110.178 4.38689 110.464 4.67597C110.75 4.96504 110.911 5.35712 110.911 5.76593ZM110.638 11.2711V25.5157H108.134V11.2917L110.638 11.2711Z" fill="#70BDFB"/>
<path d="M121.165 13.5764C120.667 13.5653 120.173 13.6552 119.71 13.8407C119.248 14.0263 118.827 14.3036 118.472 14.6565C118.118 15.0093 117.837 15.4304 117.646 15.895C117.455 16.3596 117.358 16.8581 117.361 17.3612V25.5364H114.857V11.3193H117.361V13.3837C117.836 12.7808 118.431 12.2854 119.107 11.9298C119.784 11.5742 120.526 11.3662 121.287 11.3193C122.054 11.2891 122.818 11.4216 123.531 11.7082C124.244 11.9948 124.89 12.4291 125.427 12.9833C125.964 13.5375 126.381 14.1992 126.65 14.9259C126.919 15.6527 127.034 16.4283 126.989 17.2029V25.5364H124.519V17.3612C124.519 15.0697 123.158 13.5764 121.165 13.5764Z" fill="#70BDFB"/>
<path d="M21.093 22.0199C21.093 25.2542 19.1198 29.1491 15.5883 32.1356C10.4986 36.4709 4.08215 37.2829 1.29237 33.9248C-1.08914 31.069 -0.0752975 26.1487 3.44935 22.0199C1.20392 19.4462 -0.000450034 16.5147 -0.000450034 13.9617C-0.000450034 10.7274 1.96601 6.83249 5.50426 3.84594C10.6211 -0.489377 17.0104 -1.27386 19.8274 2.06364C22.2021 4.91945 21.1883 9.86722 17.6704 13.9479C19.9091 16.556 21.1338 19.5081 21.093 22.0199Z" fill="#70BDFB"/>
</svg>
