<svg width="160" height="46" viewBox="0 0 160 46" fill="none" xmlns="http://www.w3.org/2000/svg">
<g clip-path="url(#clip0_527_712)">
<path d="M38.7334 23.6106C38.7334 18.3468 42.2312 14.614 47.1779 14.614C48.2972 14.6196 49.3975 14.9048 50.3794 15.4439C51.3613 15.983 52.1938 16.759 52.8019 17.7018V5.49707H55.9568V32.4179H52.8019V29.5194C52.1815 30.4596 51.3438 31.2353 50.36 31.7804C49.3763 32.3255 48.2757 32.6239 47.1522 32.6502C42.2312 32.6502 38.7334 28.883 38.7334 23.6106ZM52.8019 23.6106C52.8019 20.2132 50.2299 17.3921 47.3322 17.3921C44.1002 17.3921 41.8883 19.9724 41.8883 23.6106C41.8883 27.2488 44.1002 29.8635 47.3322 29.8635C50.2557 29.8635 52.8019 27.0854 52.8019 23.6106Z" fill="white"/>
<path d="M59.9092 23.7224C59.9092 18.4586 63.407 14.7172 68.3108 14.7172C69.3985 14.7467 70.464 15.0321 71.4216 15.5505C72.3791 16.0689 73.2018 16.8058 73.8233 17.7018V14.6484H76.9782V32.4179H73.8233V29.5624C73.2342 30.4976 72.4211 31.27 71.4583 31.8093C70.4955 32.3486 69.4135 32.6376 68.3108 32.6502C63.4413 32.6502 59.9092 28.883 59.9092 23.7224ZM73.8662 23.7224C73.8662 20.1358 71.2943 17.5039 68.4223 17.5039C65.2674 17.5039 63.0641 20.024 63.0641 23.7224C63.0641 27.4208 65.2674 29.8979 68.4223 29.8979C71.2771 29.8635 73.8233 27.2746 73.8662 23.7224Z" fill="white"/>
<path d="M83.7849 40.5028L87.5057 31.3944L80.3643 14.6484H83.7935L89.1603 27.6186L94.3041 14.6484H97.7334L87.2399 40.5028H83.7849Z" fill="white"/>
<path d="M106.401 29.7861C108.527 29.7861 110.053 28.8744 110.053 27.352C110.053 25.8296 108.073 25.3308 106.101 24.6427C103.666 23.7826 100.246 22.7333 100.246 19.3359C100.246 16.3256 103.015 14.4592 106.555 14.4592C108.647 14.4592 111.991 15.6806 112.822 18.8457L110.053 19.8004C109.845 19.0427 109.384 18.3794 108.748 17.9209C108.111 17.4624 107.338 17.2363 106.555 17.2803C104.729 17.2803 103.4 18.0458 103.4 19.3359C103.4 20.7895 105.227 21.2884 107.353 22.0108C109.925 22.8709 113.208 23.9546 113.208 27.352C113.208 30.5171 110.319 32.5728 106.401 32.5728C104.962 32.5571 103.555 32.1485 102.33 31.3909C101.105 30.6332 100.109 29.5551 99.4482 28.2723L102.02 26.7499C102.409 27.6054 103.022 28.3393 103.793 28.8738C104.565 29.4084 105.466 29.7236 106.401 29.7861Z" fill="white"/>
<path d="M120.504 23.0773L127.731 14.6484H132.018L125.159 22.5441L132.112 32.4179H128.237L122.913 24.9437L120.521 27.8079V32.4179H117.366V5.49707H120.521L120.504 23.0773Z" fill="white"/>
<path d="M139.742 7.70749C139.742 8.21846 139.54 8.7085 139.18 9.06981C138.82 9.43111 138.331 9.63409 137.822 9.63409C137.312 9.63409 136.824 9.43111 136.464 9.06981C136.104 8.7085 135.901 8.21846 135.901 7.70749C135.901 7.19652 136.104 6.70648 136.464 6.34517C136.824 5.98386 137.312 5.78088 137.822 5.78088C138.331 5.78088 138.82 5.98386 139.18 6.34517C139.54 6.70648 139.742 7.19652 139.742 7.70749ZM139.399 14.5882V32.3921H136.244V14.614L139.399 14.5882Z" fill="white"/>
<path d="M152.662 17.4695C152.036 17.4557 151.412 17.5681 150.83 17.8C150.247 18.0318 149.717 18.3785 149.27 18.8195C148.823 19.2605 148.469 19.7869 148.229 20.3675C147.988 20.9481 147.866 21.5713 147.87 22.2V32.4179H144.715V14.6484H147.87V17.2287C148.468 16.4751 149.218 15.856 150.07 15.4115C150.922 14.9671 151.858 14.7071 152.816 14.6484C153.782 14.6107 154.746 14.7763 155.644 15.1345C156.542 15.4927 157.356 16.0356 158.033 16.7283C158.709 17.4209 159.234 18.248 159.573 19.1563C159.912 20.0646 160.058 21.034 160.001 22.0022V32.4179H156.889V22.2C156.889 19.3359 155.174 17.4695 152.662 17.4695Z" fill="white"/>
<path d="M26.5769 28.023C26.5769 32.0654 24.0907 36.9335 19.6413 40.6663C13.2286 46.0849 5.14417 47.0998 1.62919 42.9026C-1.3714 39.3332 -0.0940018 33.1835 4.34687 28.023C1.51774 24.8062 0.000302045 21.1422 0.000302045 17.9513C0.000302045 13.9089 2.47793 9.04076 6.93595 5.30796C13.3829 -0.11062 21.4331 -1.09112 24.9823 3.08032C27.9744 6.6497 26.697 12.8338 22.2647 17.9341C25.0852 21.1939 26.6284 24.8836 26.5769 28.023Z" fill="white"/>
</g>
<defs>
<clipPath id="clip0_527_712">
<rect width="160" height="45" fill="white" transform="translate(0 0.5)"/>
</clipPath>
</defs>
</svg>
