<svg width="1321" height="226" viewBox="0 0 1321 226" fill="none" xmlns="http://www.w3.org/2000/svg">
<path d="M0 218.18C0 154.778 42.2686 109.815 102.045 109.815C115.571 109.883 128.867 113.318 140.733 119.811C152.598 126.305 162.659 135.652 170.007 147.008V0H208.131V324.266H170.007V289.353C162.51 300.677 152.386 310.021 140.499 316.587C128.611 323.153 115.312 326.748 101.735 327.063C42.2686 327.063 0 281.687 0 218.18ZM170.007 218.18C170.007 177.259 138.927 143.278 103.91 143.278C64.8532 143.278 38.1246 174.358 38.1246 218.18C38.1246 262.003 64.8532 293.497 103.91 293.497C139.238 293.497 170.007 260.035 170.007 218.18Z" fill="#70BDFB"/>
<path d="M230.328 219.527C230.328 156.124 272.597 111.058 331.856 111.058C344.999 111.413 357.876 114.851 369.447 121.095C381.018 127.339 390.959 136.215 398.47 147.007V110.229H436.595V324.266H398.47V289.871C391.35 301.135 381.525 310.439 369.89 316.935C358.256 323.431 345.18 326.912 331.856 327.063C273.011 327.063 230.328 281.687 230.328 219.527ZM398.988 219.527C398.988 176.326 367.908 144.625 333.202 144.625C295.078 144.625 268.453 174.979 268.453 219.527C268.453 264.075 295.078 293.911 333.202 293.911C367.701 293.497 398.47 262.313 398.988 219.527Z" fill="#70BDFB"/>
<path d="M499.778 421.649L544.74 311.938L458.441 110.229H499.881L564.734 266.457L626.894 110.229H668.334L541.528 421.649H499.778Z" fill="#70BDFB"/>
<path d="M762.822 292.565C788.515 292.565 806.955 281.584 806.955 263.247C806.955 244.91 783.024 238.901 759.196 230.613C729.774 220.253 688.437 207.614 688.437 166.692C688.437 130.432 721.9 107.951 764.687 107.951C789.965 107.951 830.369 122.662 840.418 160.787L806.955 172.286C804.437 163.159 798.87 155.17 791.18 149.647C783.489 144.124 774.14 141.402 764.687 141.932C742.62 141.932 726.562 151.152 726.562 166.692C726.562 184.2 748.629 190.209 774.321 198.911C805.401 209.271 845.08 222.325 845.08 263.247C845.08 301.371 810.167 326.132 762.822 326.132C745.433 325.943 728.424 321.022 713.621 311.896C698.819 302.769 686.781 289.783 678.803 274.332L709.883 255.995C714.587 266.299 721.991 275.139 731.311 281.578C740.631 288.016 751.519 291.813 762.822 292.565Z" fill="#70BDFB"/>
<path d="M904.968 211.757L992.303 110.23H1044.1L961.223 205.334L1045.24 324.266H998.415L934.08 234.238L905.175 268.737V324.266H867.051V0H905.175L904.968 211.757Z" fill="#70BDFB"/>
<path d="M1113.89 26.6262C1113.89 32.7809 1111.45 38.6835 1107.1 43.0355C1102.74 47.3875 1096.84 49.8325 1090.69 49.8325C1084.53 49.8325 1078.63 47.3875 1074.28 43.0355C1069.93 38.6835 1067.48 32.7809 1067.48 26.6262C1067.48 20.4715 1069.93 14.5689 1074.28 10.2169C1078.63 5.86486 1084.53 3.41992 1090.69 3.41992C1096.84 3.41992 1102.74 5.86486 1107.1 10.2169C1111.45 14.5689 1113.89 20.4715 1113.89 26.6262ZM1109.75 109.506V323.957H1071.62V109.817L1109.75 109.506Z" fill="#70BDFB"/>
<path d="M1232.17 144.211C1224.6 144.045 1217.07 145.398 1210.03 148.191C1202.99 150.984 1196.58 155.159 1191.18 160.471C1185.79 165.783 1181.51 172.123 1178.6 179.117C1175.69 186.111 1174.22 193.617 1174.26 201.191V324.267H1136.14V110.23H1174.26V141.31C1181.49 132.233 1190.55 124.776 1200.85 119.422C1211.15 114.068 1222.45 110.937 1234.04 110.23C1245.71 109.776 1257.35 111.771 1268.21 116.085C1279.06 120.4 1288.9 126.939 1297.07 135.282C1305.25 143.625 1311.59 153.587 1315.69 164.528C1319.78 175.469 1321.54 187.146 1320.85 198.808V324.267H1283.25V201.191C1283.25 166.692 1262.53 144.211 1232.17 144.211Z" fill="#70BDFB"/>
</svg>
