<svg width="3840" height="72" viewBox="0 0 3840 72" fill="none" xmlns="http://www.w3.org/2000/svg">
<g clip-path="url(#clip0_547_2538)">
<rect width="1920" height="85" transform="translate(0 -6.5)" fill="#C3E4FF"/>
<path d="M59.7309 35.948V33.286C58.9682 33.418 58.2129 33.506 57.4649 33.55C56.7169 33.5793 55.8076 33.594 54.7369 33.594H53.5929V27.038H60.2149V28.776H55.7929V31.9C57.5529 31.856 59.1076 31.6873 60.4569 31.394L60.6549 33.11L60.4349 33.154H61.3369V27.038H67.9149V28.776H63.4929V31.878H68.0029V33.594H61.8869V35.948H69.5649V37.686H51.9869V35.948H59.7309ZM67.3429 39.6V45.826H65.1649V41.36H53.8789V39.6H67.3429ZM78.4094 35.948V33.286C77.6468 33.418 76.8914 33.506 76.1434 33.55C75.3954 33.5793 74.4861 33.594 73.4154 33.594H72.2714V27.038H78.8934V28.776H74.4714V31.9C76.2314 31.856 77.7861 31.6873 79.1354 31.394L79.3334 33.11L79.1134 33.154H80.0154V27.038H86.5934V28.776H82.1714V31.878H86.6814V33.594H80.5654V35.948H88.2434V37.686H70.6654V35.948H78.4094ZM86.0214 39.6V45.826H83.8434V41.36H72.5574V39.6H86.0214ZM104.436 26.246V34.1H107.472V35.904H104.436V45.716H102.28V26.246H104.436ZM93.9199 29.26V26.51H96.0979V29.26H100.696V31.02H89.2339V29.26H93.9199ZM95.0199 32.45C95.9439 32.45 96.7726 32.6407 97.5059 33.022C98.2393 33.4033 98.8113 33.9387 99.2219 34.628C99.6326 35.3173 99.8379 36.102 99.8379 36.982C99.8379 37.862 99.6326 38.6467 99.2219 39.336C98.8113 40.0107 98.2393 40.546 97.5059 40.942C96.7726 41.3233 95.9439 41.514 95.0199 41.514C94.1106 41.514 93.2893 41.3233 92.5559 40.942C91.8226 40.546 91.2433 40.0033 90.8179 39.314C90.4073 38.6247 90.2019 37.8473 90.2019 36.982C90.2019 36.102 90.4073 35.3173 90.8179 34.628C91.2433 33.9387 91.8226 33.4033 92.5559 33.022C93.2893 32.6407 94.1106 32.45 95.0199 32.45ZM95.0199 34.21C94.2133 34.21 93.5533 34.4667 93.0399 34.98C92.5413 35.4787 92.2919 36.146 92.2919 36.982C92.2919 37.8033 92.5413 38.4707 93.0399 38.984C93.5533 39.4827 94.2133 39.732 95.0199 39.732C95.8266 39.732 96.4866 39.4827 96.9999 38.984C97.5133 38.4707 97.7699 37.8033 97.7699 36.982C97.7699 36.1607 97.5133 35.4933 96.9999 34.98C96.4866 34.4667 95.8266 34.21 95.0199 34.21ZM123.664 28.072V29.986C123.664 31.6433 123.62 33.1393 123.532 34.474C123.459 35.794 123.268 37.3413 122.96 39.116L120.782 38.874C121.105 37.1873 121.303 35.6913 121.376 34.386C121.464 33.0807 121.508 31.614 121.508 29.986V29.832H109.848V28.072H123.664ZM114.644 41.338V34.496H116.778V41.338H125.622V43.12H108.022V41.338H114.644ZM146.401 26.246V31.966H149.173V33.748H146.401V40.348H144.245V26.246H146.401ZM141.187 27.742C141.187 30.2647 140.388 32.4353 138.789 34.254C137.191 36.058 134.954 37.3927 132.079 38.258L131.177 36.542C133.421 35.8673 135.211 34.914 136.545 33.682C137.88 32.45 138.643 31.0493 138.833 29.48H131.991V27.742H141.187ZM136.259 38.918V43.56H147.193V45.32H134.103V38.918H136.259ZM166.004 26.246V40.678H163.848V35.376H160.922V33.616H163.848V31.57H160.922V29.832H163.848V26.246H166.004ZM160.68 27.742V29.48H158.898V35.926C159.924 35.838 160.68 35.7647 161.164 35.706L161.274 37.312C158.531 37.752 154.82 37.972 150.142 37.972L149.922 36.168H152.21V29.48H150.428V27.742H160.68ZM155.532 39.534V43.56H166.488V45.32H153.398V39.534H155.532ZM156.808 36.036V29.48H154.3V36.124L156.808 36.036ZM183.758 26.268V32.472H186.53V34.276H183.758V40.832H181.602V26.268H183.758ZM173.264 28.49V26.246H175.442V28.49H180.084V30.206H168.622V28.49H173.264ZM174.342 31.152C175.266 31.152 176.088 31.306 176.806 31.614C177.525 31.9073 178.082 32.3327 178.478 32.89C178.874 33.4473 179.072 34.0927 179.072 34.826C179.072 35.5447 178.874 36.1827 178.478 36.74C178.082 37.2973 177.525 37.73 176.806 38.038C176.088 38.346 175.266 38.5 174.342 38.5C173.433 38.5 172.619 38.346 171.9 38.038C171.196 37.73 170.646 37.2973 170.25 36.74C169.854 36.1827 169.656 35.5447 169.656 34.826C169.656 34.0927 169.854 33.4473 170.25 32.89C170.646 32.3327 171.196 31.9073 171.9 31.614C172.604 31.306 173.418 31.152 174.342 31.152ZM174.342 32.802C173.55 32.802 172.912 32.9853 172.428 33.352C171.959 33.7187 171.724 34.21 171.724 34.826C171.724 35.442 171.959 35.9333 172.428 36.3C172.912 36.652 173.55 36.828 174.342 36.828C175.134 36.828 175.772 36.652 176.256 36.3C176.74 35.9333 176.982 35.442 176.982 34.826C176.982 34.21 176.74 33.7187 176.256 33.352C175.772 32.9853 175.134 32.802 174.342 32.802ZM173.638 39.688V43.56H184.594V45.32H171.482V39.688H173.638ZM207.815 26.246V45.716H205.637V26.246H207.815ZM203.217 28.226V29.964H201.237V38.984C202.249 38.9107 203.21 38.8227 204.119 38.72L204.251 40.282C202.403 40.59 200.482 40.7953 198.487 40.898C196.507 40.986 194.322 41.0373 191.931 41.052L191.711 39.248H194.219V29.964H192.217V28.226H203.217ZM199.147 39.116V29.964H196.287V39.204L199.147 39.116ZM228.1 37.686V39.402H220.29V45.716H218.134V39.402H210.456V37.686H228.1ZM214.724 27.038V29.524H223.766V27.038H225.878V35.53H212.59V27.038H214.724ZM214.724 33.77H223.766V31.24H214.724V33.77ZM239.892 27.72V28.82C239.892 29.788 239.863 30.712 239.804 31.592C239.746 32.472 239.614 33.462 239.408 34.562L237.296 34.32C237.487 33.396 237.612 32.56 237.67 31.812C237.729 31.064 237.766 30.2793 237.78 29.458H230.124V27.72H239.892ZM234.986 32.12V36.102C237.318 35.9993 239.342 35.8307 241.058 35.596L241.19 37.136C239.386 37.4587 237.48 37.6787 235.47 37.796C233.461 37.8987 231.364 37.95 229.178 37.95L228.936 36.212C230.608 36.212 231.914 36.1973 232.852 36.168V32.12H234.986ZM244.424 26.246V32.428H247.042V34.21H244.424V40.876H242.268V26.246H244.424ZM234.018 39.556V43.56H245.062V45.32H231.884V39.556H234.018ZM263.851 26.224V45.738H261.695V26.224H263.851ZM257.933 28.006V35.178H251.091V39.314C252.836 39.2993 254.398 39.248 255.777 39.16C257.155 39.072 258.578 38.9033 260.045 38.654L260.265 40.392C258.681 40.6707 257.141 40.8613 255.645 40.964C254.163 41.052 252.469 41.096 250.563 41.096H248.913V33.418H255.755V29.744H248.869V28.006H257.933ZM272.761 27.61C273.759 27.61 274.653 27.808 275.445 28.204C276.252 28.6 276.883 29.1573 277.337 29.876C277.792 30.58 278.019 31.3793 278.019 32.274C278.019 33.1833 277.792 33.99 277.337 34.694C276.883 35.398 276.252 35.948 275.445 36.344C274.653 36.74 273.759 36.938 272.761 36.938C271.749 36.938 270.84 36.74 270.033 36.344C269.241 35.948 268.618 35.398 268.163 34.694C267.709 33.99 267.481 33.1833 267.481 32.274C267.481 31.3793 267.709 30.58 268.163 29.876C268.618 29.1573 269.241 28.6 270.033 28.204C270.84 27.808 271.749 27.61 272.761 27.61ZM272.761 29.48C271.837 29.48 271.075 29.7367 270.473 30.25C269.887 30.7487 269.593 31.4233 269.593 32.274C269.593 33.11 269.887 33.792 270.473 34.32C271.075 34.8333 271.837 35.09 272.761 35.09C273.671 35.09 274.419 34.8333 275.005 34.32C275.607 33.792 275.907 33.11 275.907 32.274C275.907 31.4233 275.614 30.7487 275.027 30.25C274.441 29.7367 273.685 29.48 272.761 29.48ZM282.463 26.224V45.738H280.307V26.224H282.463ZM266.557 39.82C269.021 39.82 271.265 39.7833 273.289 39.71C275.328 39.622 277.271 39.4387 279.119 39.16L279.273 40.722C277.367 41.0887 275.409 41.3307 273.399 41.448C271.39 41.5507 269.197 41.602 266.821 41.602L266.557 39.82ZM296.818 27.874V31.086C296.818 32.274 297.031 33.44 297.456 34.584C297.881 35.728 298.475 36.7473 299.238 37.642C300.001 38.522 300.881 39.182 301.878 39.622L300.602 41.36C299.502 40.832 298.534 40.0547 297.698 39.028C296.862 38.0013 296.217 36.8207 295.762 35.486C295.307 36.938 294.655 38.2067 293.804 39.292C292.953 40.3773 291.956 41.1987 290.812 41.756L289.514 39.974C290.511 39.5193 291.399 38.83 292.176 37.906C292.953 36.982 293.555 35.926 293.98 34.738C294.42 33.5353 294.64 32.318 294.64 31.086V27.874H296.818ZM305.662 26.224V45.738H303.506V26.224H305.662ZM319.281 27.522V29.282H315.167V29.678C315.167 30.954 315.577 32.1273 316.399 33.198C317.22 34.254 318.357 35.0313 319.809 35.53L318.687 37.224C317.631 36.8573 316.714 36.322 315.937 35.618C315.159 34.8993 314.551 34.056 314.111 33.088C313.685 34.1293 313.062 35.0387 312.241 35.816C311.434 36.5933 310.473 37.18 309.359 37.576L308.193 35.882C309.689 35.3833 310.862 34.5693 311.713 33.44C312.578 32.296 313.011 31.0493 313.011 29.7V29.282H308.831V27.522H319.281ZM323.549 26.246V31.218H326.321V33.022H323.549V37.95H321.393V26.246H323.549ZM323.549 38.94V45.716H321.393V40.678H310.789V38.94H323.549Z" fill="#2A9BF8"/>
<g clip-path="url(#clip1_547_2538)">
<path d="M467.733 36.6116C467.733 31.3478 471.231 27.615 476.177 27.615C477.297 27.6206 478.397 27.9058 479.379 28.4449C480.361 28.984 481.193 29.76 481.801 30.7027V18.498H484.956V45.4189H481.801V42.5204C481.181 43.4605 480.343 44.2362 479.36 44.7814C478.376 45.3265 477.275 45.6249 476.152 45.6511C471.231 45.6511 467.733 41.8839 467.733 36.6116ZM481.801 36.6116C481.801 33.2142 479.229 30.3931 476.332 30.3931C473.1 30.3931 470.888 32.9734 470.888 36.6116C470.888 40.2498 473.1 42.8644 476.332 42.8644C479.255 42.8644 481.801 40.0864 481.801 36.6116Z" fill="white"/>
<path d="M488.909 36.7224C488.909 31.4586 492.407 27.7172 497.31 27.7172C498.398 27.7467 499.464 28.0321 500.421 28.5505C501.379 29.0689 502.201 29.8058 502.823 30.7018V27.6484H505.978V45.4179H502.823V42.5624C502.234 43.4976 501.421 44.27 500.458 44.8093C499.495 45.3486 498.413 45.6376 497.31 45.6502C492.441 45.6502 488.909 41.883 488.909 36.7224ZM502.866 36.7224C502.866 33.1358 500.294 30.5039 497.422 30.5039C494.267 30.5039 492.064 33.024 492.064 36.7224C492.064 40.4208 494.267 42.8979 497.422 42.8979C500.277 42.8635 502.823 40.2746 502.866 36.7224Z" fill="white"/>
<path d="M512.785 53.5028L516.506 44.3944L509.364 27.6484H512.794L518.16 40.6186L523.304 27.6484H526.733L516.24 53.5028H512.785Z" fill="white"/>
<path d="M535.401 42.7858C537.527 42.7858 539.053 41.8741 539.053 40.3518C539.053 38.8294 537.072 38.3305 535.1 37.6425C532.666 36.7824 529.245 35.7331 529.245 32.3357C529.245 29.3254 532.014 27.459 535.555 27.459C537.647 27.459 540.99 28.6803 541.822 31.8455L539.053 32.8002C538.844 32.0424 538.384 31.3791 537.747 30.9206C537.111 30.4621 536.337 30.2361 535.555 30.2801C533.729 30.2801 532.4 31.0456 532.4 32.3357C532.4 33.7893 534.226 34.2881 536.352 35.0106C538.924 35.8707 542.208 36.9544 542.208 40.3518C542.208 43.5169 539.318 45.5725 535.401 45.5725C533.962 45.5569 532.554 45.1483 531.329 44.3906C530.104 43.633 529.108 42.5549 528.448 41.2721L531.02 39.7497C531.409 40.6052 532.022 41.3391 532.793 41.8736C533.564 42.4081 534.465 42.7233 535.401 42.7858Z" fill="white"/>
<path d="M549.503 36.0783L556.731 27.6494H561.017L554.159 35.5451L561.111 45.4189H557.236L551.913 37.9447L549.521 40.8088V45.4189H546.366V18.498H549.521L549.503 36.0783Z" fill="white"/>
<path d="M568.742 20.7079C568.742 21.2188 568.539 21.7089 568.179 22.0702C567.819 22.4315 567.331 22.6345 566.821 22.6345C566.312 22.6345 565.823 22.4315 565.463 22.0702C565.103 21.7089 564.901 21.2188 564.901 20.7079C564.901 20.1969 565.103 19.7068 565.463 19.3455C565.823 18.9842 566.312 18.7812 566.821 18.7812C567.331 18.7812 567.819 18.9842 568.179 19.3455C568.539 19.7068 568.742 20.1969 568.742 20.7079ZM568.399 27.5886V45.3925H565.244V27.6144L568.399 27.5886Z" fill="white"/>
<path d="M581.661 30.4709C581.035 30.4571 580.412 30.5694 579.829 30.8013C579.246 31.0332 578.716 31.3798 578.269 31.8208C577.822 32.2618 577.468 32.7882 577.228 33.3688C576.987 33.9495 576.865 34.5726 576.869 35.2014V45.4193H573.714V27.6498H576.869V30.2301C577.467 29.4765 578.217 28.8574 579.069 28.4129C579.921 27.9684 580.857 27.7084 581.815 27.6498C582.781 27.6121 583.745 27.7777 584.643 28.1359C585.541 28.4941 586.355 29.0369 587.032 29.7296C587.708 30.4222 588.233 31.2493 588.572 32.1576C588.911 33.066 589.057 34.0354 589 35.0036V45.4193H585.888V35.2014C585.888 32.3373 584.173 30.4709 581.661 30.4709Z" fill="white"/>
<path d="M455.576 41.0233C455.576 45.0658 453.09 49.9339 448.641 53.6667C442.228 59.0853 434.144 60.1002 430.629 55.9029C427.628 52.3336 428.906 46.1839 433.346 41.0233C430.517 37.8066 429 34.1426 429 30.9517C429 26.9092 431.477 22.0411 435.935 18.3083C442.382 12.8897 450.433 11.9092 453.982 16.0807C456.974 19.6501 455.696 25.8341 451.264 30.9345C454.085 34.1942 455.628 37.884 455.576 41.0233Z" fill="white"/>
</g>
<path d="M699.731 35.948V33.286C698.968 33.418 698.213 33.506 697.465 33.55C696.717 33.5793 695.808 33.594 694.737 33.594H693.593V27.038H700.215V28.776H695.793V31.9C697.553 31.856 699.108 31.6873 700.457 31.394L700.655 33.11L700.435 33.154H701.337V27.038H707.915V28.776H703.493V31.878H708.003V33.594H701.887V35.948H709.565V37.686H691.987V35.948H699.731ZM707.343 39.6V45.826H705.165V41.36H693.879V39.6H707.343ZM718.409 35.948V33.286C717.647 33.418 716.891 33.506 716.143 33.55C715.395 33.5793 714.486 33.594 713.415 33.594H712.271V27.038H718.893V28.776H714.471V31.9C716.231 31.856 717.786 31.6873 719.135 31.394L719.333 33.11L719.113 33.154H720.015V27.038H726.593V28.776H722.171V31.878H726.681V33.594H720.565V35.948H728.243V37.686H710.665V35.948H718.409ZM726.021 39.6V45.826H723.843V41.36H712.557V39.6H726.021ZM744.436 26.246V34.1H747.472V35.904H744.436V45.716H742.28V26.246H744.436ZM733.92 29.26V26.51H736.098V29.26H740.696V31.02H729.234V29.26H733.92ZM735.02 32.45C735.944 32.45 736.773 32.6407 737.506 33.022C738.239 33.4033 738.811 33.9387 739.222 34.628C739.633 35.3173 739.838 36.102 739.838 36.982C739.838 37.862 739.633 38.6467 739.222 39.336C738.811 40.0107 738.239 40.546 737.506 40.942C736.773 41.3233 735.944 41.514 735.02 41.514C734.111 41.514 733.289 41.3233 732.556 40.942C731.823 40.546 731.243 40.0033 730.818 39.314C730.407 38.6247 730.202 37.8473 730.202 36.982C730.202 36.102 730.407 35.3173 730.818 34.628C731.243 33.9387 731.823 33.4033 732.556 33.022C733.289 32.6407 734.111 32.45 735.02 32.45ZM735.02 34.21C734.213 34.21 733.553 34.4667 733.04 34.98C732.541 35.4787 732.292 36.146 732.292 36.982C732.292 37.8033 732.541 38.4707 733.04 38.984C733.553 39.4827 734.213 39.732 735.02 39.732C735.827 39.732 736.487 39.4827 737 38.984C737.513 38.4707 737.77 37.8033 737.77 36.982C737.77 36.1607 737.513 35.4933 737 34.98C736.487 34.4667 735.827 34.21 735.02 34.21ZM763.664 28.072V29.986C763.664 31.6433 763.62 33.1393 763.532 34.474C763.459 35.794 763.268 37.3413 762.96 39.116L760.782 38.874C761.105 37.1873 761.303 35.6913 761.376 34.386C761.464 33.0807 761.508 31.614 761.508 29.986V29.832H749.848V28.072H763.664ZM754.644 41.338V34.496H756.778V41.338H765.622V43.12H748.022V41.338H754.644ZM786.401 26.246V31.966H789.173V33.748H786.401V40.348H784.245V26.246H786.401ZM781.187 27.742C781.187 30.2647 780.388 32.4353 778.789 34.254C777.191 36.058 774.954 37.3927 772.079 38.258L771.177 36.542C773.421 35.8673 775.211 34.914 776.545 33.682C777.88 32.45 778.643 31.0493 778.833 29.48H771.991V27.742H781.187ZM776.259 38.918V43.56H787.193V45.32H774.103V38.918H776.259ZM806.004 26.246V40.678H803.848V35.376H800.922V33.616H803.848V31.57H800.922V29.832H803.848V26.246H806.004ZM800.68 27.742V29.48H798.898V35.926C799.924 35.838 800.68 35.7647 801.164 35.706L801.274 37.312C798.531 37.752 794.82 37.972 790.142 37.972L789.922 36.168H792.21V29.48H790.428V27.742H800.68ZM795.532 39.534V43.56H806.488V45.32H793.398V39.534H795.532ZM796.808 36.036V29.48H794.3V36.124L796.808 36.036ZM823.758 26.268V32.472H826.53V34.276H823.758V40.832H821.602V26.268H823.758ZM813.264 28.49V26.246H815.442V28.49H820.084V30.206H808.622V28.49H813.264ZM814.342 31.152C815.266 31.152 816.088 31.306 816.806 31.614C817.525 31.9073 818.082 32.3327 818.478 32.89C818.874 33.4473 819.072 34.0927 819.072 34.826C819.072 35.5447 818.874 36.1827 818.478 36.74C818.082 37.2973 817.525 37.73 816.806 38.038C816.088 38.346 815.266 38.5 814.342 38.5C813.433 38.5 812.619 38.346 811.9 38.038C811.196 37.73 810.646 37.2973 810.25 36.74C809.854 36.1827 809.656 35.5447 809.656 34.826C809.656 34.0927 809.854 33.4473 810.25 32.89C810.646 32.3327 811.196 31.9073 811.9 31.614C812.604 31.306 813.418 31.152 814.342 31.152ZM814.342 32.802C813.55 32.802 812.912 32.9853 812.428 33.352C811.959 33.7187 811.724 34.21 811.724 34.826C811.724 35.442 811.959 35.9333 812.428 36.3C812.912 36.652 813.55 36.828 814.342 36.828C815.134 36.828 815.772 36.652 816.256 36.3C816.74 35.9333 816.982 35.442 816.982 34.826C816.982 34.21 816.74 33.7187 816.256 33.352C815.772 32.9853 815.134 32.802 814.342 32.802ZM813.638 39.688V43.56H824.594V45.32H811.482V39.688H813.638ZM847.815 26.246V45.716H845.637V26.246H847.815ZM843.217 28.226V29.964H841.237V38.984C842.249 38.9107 843.21 38.8227 844.119 38.72L844.251 40.282C842.403 40.59 840.482 40.7953 838.487 40.898C836.507 40.986 834.322 41.0373 831.931 41.052L831.711 39.248H834.219V29.964H832.217V28.226H843.217ZM839.147 39.116V29.964H836.287V39.204L839.147 39.116ZM868.1 37.686V39.402H860.29V45.716H858.134V39.402H850.456V37.686H868.1ZM854.724 27.038V29.524H863.766V27.038H865.878V35.53H852.59V27.038H854.724ZM854.724 33.77H863.766V31.24H854.724V33.77ZM879.892 27.72V28.82C879.892 29.788 879.863 30.712 879.804 31.592C879.746 32.472 879.614 33.462 879.408 34.562L877.296 34.32C877.487 33.396 877.612 32.56 877.67 31.812C877.729 31.064 877.766 30.2793 877.78 29.458H870.124V27.72H879.892ZM874.986 32.12V36.102C877.318 35.9993 879.342 35.8307 881.058 35.596L881.19 37.136C879.386 37.4587 877.48 37.6787 875.47 37.796C873.461 37.8987 871.364 37.95 869.178 37.95L868.936 36.212C870.608 36.212 871.914 36.1973 872.852 36.168V32.12H874.986ZM884.424 26.246V32.428H887.042V34.21H884.424V40.876H882.268V26.246H884.424ZM874.018 39.556V43.56H885.062V45.32H871.884V39.556H874.018ZM903.851 26.224V45.738H901.695V26.224H903.851ZM897.933 28.006V35.178H891.091V39.314C892.836 39.2993 894.398 39.248 895.777 39.16C897.155 39.072 898.578 38.9033 900.045 38.654L900.265 40.392C898.681 40.6707 897.141 40.8613 895.645 40.964C894.163 41.052 892.469 41.096 890.563 41.096H888.913V33.418H895.755V29.744H888.869V28.006H897.933ZM912.761 27.61C913.759 27.61 914.653 27.808 915.445 28.204C916.252 28.6 916.883 29.1573 917.337 29.876C917.792 30.58 918.019 31.3793 918.019 32.274C918.019 33.1833 917.792 33.99 917.337 34.694C916.883 35.398 916.252 35.948 915.445 36.344C914.653 36.74 913.759 36.938 912.761 36.938C911.749 36.938 910.84 36.74 910.033 36.344C909.241 35.948 908.618 35.398 908.163 34.694C907.709 33.99 907.481 33.1833 907.481 32.274C907.481 31.3793 907.709 30.58 908.163 29.876C908.618 29.1573 909.241 28.6 910.033 28.204C910.84 27.808 911.749 27.61 912.761 27.61ZM912.761 29.48C911.837 29.48 911.075 29.7367 910.473 30.25C909.887 30.7487 909.593 31.4233 909.593 32.274C909.593 33.11 909.887 33.792 910.473 34.32C911.075 34.8333 911.837 35.09 912.761 35.09C913.671 35.09 914.419 34.8333 915.005 34.32C915.607 33.792 915.907 33.11 915.907 32.274C915.907 31.4233 915.614 30.7487 915.027 30.25C914.441 29.7367 913.685 29.48 912.761 29.48ZM922.463 26.224V45.738H920.307V26.224H922.463ZM906.557 39.82C909.021 39.82 911.265 39.7833 913.289 39.71C915.328 39.622 917.271 39.4387 919.119 39.16L919.273 40.722C917.367 41.0887 915.409 41.3307 913.399 41.448C911.39 41.5507 909.197 41.602 906.821 41.602L906.557 39.82ZM936.818 27.874V31.086C936.818 32.274 937.031 33.44 937.456 34.584C937.881 35.728 938.475 36.7473 939.238 37.642C940.001 38.522 940.881 39.182 941.878 39.622L940.602 41.36C939.502 40.832 938.534 40.0547 937.698 39.028C936.862 38.0013 936.217 36.8207 935.762 35.486C935.307 36.938 934.655 38.2067 933.804 39.292C932.953 40.3773 931.956 41.1987 930.812 41.756L929.514 39.974C930.511 39.5193 931.399 38.83 932.176 37.906C932.953 36.982 933.555 35.926 933.98 34.738C934.42 33.5353 934.64 32.318 934.64 31.086V27.874H936.818ZM945.662 26.224V45.738H943.506V26.224H945.662ZM959.281 27.522V29.282H955.167V29.678C955.167 30.954 955.577 32.1273 956.399 33.198C957.22 34.254 958.357 35.0313 959.809 35.53L958.687 37.224C957.631 36.8573 956.714 36.322 955.937 35.618C955.159 34.8993 954.551 34.056 954.111 33.088C953.685 34.1293 953.062 35.0387 952.241 35.816C951.434 36.5933 950.473 37.18 949.359 37.576L948.193 35.882C949.689 35.3833 950.862 34.5693 951.713 33.44C952.578 32.296 953.011 31.0493 953.011 29.7V29.282H948.831V27.522H959.281ZM963.549 26.246V31.218H966.321V33.022H963.549V37.95H961.393V26.246H963.549ZM963.549 38.94V45.716H961.393V40.678H950.789V38.94H963.549Z" fill="#2A9BF8"/>
<g clip-path="url(#clip2_547_2538)">
<path d="M1107.73 36.6116C1107.73 31.3478 1111.23 27.615 1116.18 27.615C1117.3 27.6206 1118.4 27.9058 1119.38 28.4449C1120.36 28.984 1121.19 29.76 1121.8 30.7027V18.498H1124.96V45.4189H1121.8V42.5204C1121.18 43.4605 1120.34 44.2362 1119.36 44.7814C1118.38 45.3265 1117.28 45.6249 1116.15 45.6511C1111.23 45.6511 1107.73 41.8839 1107.73 36.6116ZM1121.8 36.6116C1121.8 33.2142 1119.23 30.3931 1116.33 30.3931C1113.1 30.3931 1110.89 32.9734 1110.89 36.6116C1110.89 40.2498 1113.1 42.8644 1116.33 42.8644C1119.26 42.8644 1121.8 40.0864 1121.8 36.6116Z" fill="white"/>
<path d="M1128.91 36.7224C1128.91 31.4586 1132.41 27.7172 1137.31 27.7172C1138.4 27.7467 1139.46 28.0321 1140.42 28.5505C1141.38 29.0689 1142.2 29.8058 1142.82 30.7018V27.6484H1145.98V45.4179H1142.82V42.5624C1142.23 43.4976 1141.42 44.27 1140.46 44.8093C1139.5 45.3486 1138.41 45.6376 1137.31 45.6502C1132.44 45.6502 1128.91 41.883 1128.91 36.7224ZM1142.87 36.7224C1142.87 33.1358 1140.29 30.5039 1137.42 30.5039C1134.27 30.5039 1132.06 33.024 1132.06 36.7224C1132.06 40.4208 1134.27 42.8979 1137.42 42.8979C1140.28 42.8635 1142.82 40.2746 1142.87 36.7224Z" fill="white"/>
<path d="M1152.78 53.5028L1156.51 44.3944L1149.36 27.6484H1152.79L1158.16 40.6186L1163.3 27.6484H1166.73L1156.24 53.5028H1152.78Z" fill="white"/>
<path d="M1175.4 42.7858C1177.53 42.7858 1179.05 41.8741 1179.05 40.3518C1179.05 38.8294 1177.07 38.3305 1175.1 37.6425C1172.67 36.7824 1169.25 35.7331 1169.25 32.3357C1169.25 29.3254 1172.01 27.459 1175.55 27.459C1177.65 27.459 1180.99 28.6803 1181.82 31.8455L1179.05 32.8002C1178.84 32.0424 1178.38 31.3791 1177.75 30.9206C1177.11 30.4621 1176.34 30.2361 1175.55 30.2801C1173.73 30.2801 1172.4 31.0456 1172.4 32.3357C1172.4 33.7893 1174.23 34.2881 1176.35 35.0106C1178.92 35.8707 1182.21 36.9544 1182.21 40.3518C1182.21 43.5169 1179.32 45.5725 1175.4 45.5725C1173.96 45.5569 1172.55 45.1483 1171.33 44.3906C1170.1 43.633 1169.11 42.5549 1168.45 41.2721L1171.02 39.7497C1171.41 40.6052 1172.02 41.3391 1172.79 41.8736C1173.56 42.4081 1174.47 42.7233 1175.4 42.7858Z" fill="white"/>
<path d="M1189.5 36.0783L1196.73 27.6494H1201.02L1194.16 35.5451L1201.11 45.4189H1197.24L1191.91 37.9447L1189.52 40.8088V45.4189H1186.37V18.498H1189.52L1189.5 36.0783Z" fill="white"/>
<path d="M1208.74 20.7079C1208.74 21.2188 1208.54 21.7089 1208.18 22.0702C1207.82 22.4315 1207.33 22.6345 1206.82 22.6345C1206.31 22.6345 1205.82 22.4315 1205.46 22.0702C1205.1 21.7089 1204.9 21.2188 1204.9 20.7079C1204.9 20.1969 1205.1 19.7068 1205.46 19.3455C1205.82 18.9842 1206.31 18.7812 1206.82 18.7812C1207.33 18.7812 1207.82 18.9842 1208.18 19.3455C1208.54 19.7068 1208.74 20.1969 1208.74 20.7079ZM1208.4 27.5886V45.3925H1205.24V27.6144L1208.4 27.5886Z" fill="white"/>
<path d="M1221.66 30.4709C1221.03 30.4571 1220.41 30.5694 1219.83 30.8013C1219.25 31.0332 1218.72 31.3798 1218.27 31.8208C1217.82 32.2618 1217.47 32.7882 1217.23 33.3688C1216.99 33.9495 1216.87 34.5726 1216.87 35.2014V45.4193H1213.71V27.6498H1216.87V30.2301C1217.47 29.4765 1218.22 28.8574 1219.07 28.4129C1219.92 27.9684 1220.86 27.7084 1221.82 27.6498C1222.78 27.6121 1223.74 27.7777 1224.64 28.1359C1225.54 28.4941 1226.36 29.0369 1227.03 29.7296C1227.71 30.4222 1228.23 31.2493 1228.57 32.1576C1228.91 33.066 1229.06 34.0354 1229 35.0036V45.4193H1225.89V35.2014C1225.89 32.3373 1224.17 30.4709 1221.66 30.4709Z" fill="white"/>
<path d="M1095.58 41.0233C1095.58 45.0658 1093.09 49.9339 1088.64 53.6667C1082.23 59.0853 1074.14 60.1002 1070.63 55.9029C1067.63 52.3336 1068.91 46.1839 1073.35 41.0233C1070.52 37.8066 1069 34.1426 1069 30.9517C1069 26.9092 1071.48 22.0411 1075.94 18.3083C1082.38 12.8897 1090.43 11.9092 1093.98 16.0807C1096.97 19.6501 1095.7 25.8341 1091.26 30.9345C1094.08 34.1942 1095.63 37.884 1095.58 41.0233Z" fill="white"/>
</g>
<path d="M1339.73 35.948V33.286C1338.97 33.418 1338.21 33.506 1337.46 33.55C1336.72 33.5793 1335.81 33.594 1334.74 33.594H1333.59V27.038H1340.21V28.776H1335.79V31.9C1337.55 31.856 1339.11 31.6873 1340.46 31.394L1340.65 33.11L1340.43 33.154H1341.34V27.038H1347.91V28.776H1343.49V31.878H1348V33.594H1341.89V35.948H1349.56V37.686H1331.99V35.948H1339.73ZM1347.34 39.6V45.826H1345.16V41.36H1333.88V39.6H1347.34ZM1358.41 35.948V33.286C1357.65 33.418 1356.89 33.506 1356.14 33.55C1355.4 33.5793 1354.49 33.594 1353.42 33.594H1352.27V27.038H1358.89V28.776H1354.47V31.9C1356.23 31.856 1357.79 31.6873 1359.14 31.394L1359.33 33.11L1359.11 33.154H1360.02V27.038H1366.59V28.776H1362.17V31.878H1366.68V33.594H1360.57V35.948H1368.24V37.686H1350.67V35.948H1358.41ZM1366.02 39.6V45.826H1363.84V41.36H1352.56V39.6H1366.02ZM1384.44 26.246V34.1H1387.47V35.904H1384.44V45.716H1382.28V26.246H1384.44ZM1373.92 29.26V26.51H1376.1V29.26H1380.7V31.02H1369.23V29.26H1373.92ZM1375.02 32.45C1375.94 32.45 1376.77 32.6407 1377.51 33.022C1378.24 33.4033 1378.81 33.9387 1379.22 34.628C1379.63 35.3173 1379.84 36.102 1379.84 36.982C1379.84 37.862 1379.63 38.6467 1379.22 39.336C1378.81 40.0107 1378.24 40.546 1377.51 40.942C1376.77 41.3233 1375.94 41.514 1375.02 41.514C1374.11 41.514 1373.29 41.3233 1372.56 40.942C1371.82 40.546 1371.24 40.0033 1370.82 39.314C1370.41 38.6247 1370.2 37.8473 1370.2 36.982C1370.2 36.102 1370.41 35.3173 1370.82 34.628C1371.24 33.9387 1371.82 33.4033 1372.56 33.022C1373.29 32.6407 1374.11 32.45 1375.02 32.45ZM1375.02 34.21C1374.21 34.21 1373.55 34.4667 1373.04 34.98C1372.54 35.4787 1372.29 36.146 1372.29 36.982C1372.29 37.8033 1372.54 38.4707 1373.04 38.984C1373.55 39.4827 1374.21 39.732 1375.02 39.732C1375.83 39.732 1376.49 39.4827 1377 38.984C1377.51 38.4707 1377.77 37.8033 1377.77 36.982C1377.77 36.1607 1377.51 35.4933 1377 34.98C1376.49 34.4667 1375.83 34.21 1375.02 34.21ZM1403.66 28.072V29.986C1403.66 31.6433 1403.62 33.1393 1403.53 34.474C1403.46 35.794 1403.27 37.3413 1402.96 39.116L1400.78 38.874C1401.11 37.1873 1401.3 35.6913 1401.38 34.386C1401.46 33.0807 1401.51 31.614 1401.51 29.986V29.832H1389.85V28.072H1403.66ZM1394.64 41.338V34.496H1396.78V41.338H1405.62V43.12H1388.02V41.338H1394.64ZM1426.4 26.246V31.966H1429.17V33.748H1426.4V40.348H1424.25V26.246H1426.4ZM1421.19 27.742C1421.19 30.2647 1420.39 32.4353 1418.79 34.254C1417.19 36.058 1414.95 37.3927 1412.08 38.258L1411.18 36.542C1413.42 35.8673 1415.21 34.914 1416.55 33.682C1417.88 32.45 1418.64 31.0493 1418.83 29.48H1411.99V27.742H1421.19ZM1416.26 38.918V43.56H1427.19V45.32H1414.1V38.918H1416.26ZM1446 26.246V40.678H1443.85V35.376H1440.92V33.616H1443.85V31.57H1440.92V29.832H1443.85V26.246H1446ZM1440.68 27.742V29.48H1438.9V35.926C1439.92 35.838 1440.68 35.7647 1441.16 35.706L1441.27 37.312C1438.53 37.752 1434.82 37.972 1430.14 37.972L1429.92 36.168H1432.21V29.48H1430.43V27.742H1440.68ZM1435.53 39.534V43.56H1446.49V45.32H1433.4V39.534H1435.53ZM1436.81 36.036V29.48H1434.3V36.124L1436.81 36.036ZM1463.76 26.268V32.472H1466.53V34.276H1463.76V40.832H1461.6V26.268H1463.76ZM1453.26 28.49V26.246H1455.44V28.49H1460.08V30.206H1448.62V28.49H1453.26ZM1454.34 31.152C1455.27 31.152 1456.09 31.306 1456.81 31.614C1457.52 31.9073 1458.08 32.3327 1458.48 32.89C1458.87 33.4473 1459.07 34.0927 1459.07 34.826C1459.07 35.5447 1458.87 36.1827 1458.48 36.74C1458.08 37.2973 1457.52 37.73 1456.81 38.038C1456.09 38.346 1455.27 38.5 1454.34 38.5C1453.43 38.5 1452.62 38.346 1451.9 38.038C1451.2 37.73 1450.65 37.2973 1450.25 36.74C1449.85 36.1827 1449.66 35.5447 1449.66 34.826C1449.66 34.0927 1449.85 33.4473 1450.25 32.89C1450.65 32.3327 1451.2 31.9073 1451.9 31.614C1452.6 31.306 1453.42 31.152 1454.34 31.152ZM1454.34 32.802C1453.55 32.802 1452.91 32.9853 1452.43 33.352C1451.96 33.7187 1451.72 34.21 1451.72 34.826C1451.72 35.442 1451.96 35.9333 1452.43 36.3C1452.91 36.652 1453.55 36.828 1454.34 36.828C1455.13 36.828 1455.77 36.652 1456.26 36.3C1456.74 35.9333 1456.98 35.442 1456.98 34.826C1456.98 34.21 1456.74 33.7187 1456.26 33.352C1455.77 32.9853 1455.13 32.802 1454.34 32.802ZM1453.64 39.688V43.56H1464.59V45.32H1451.48V39.688H1453.64ZM1487.82 26.246V45.716H1485.64V26.246H1487.82ZM1483.22 28.226V29.964H1481.24V38.984C1482.25 38.9107 1483.21 38.8227 1484.12 38.72L1484.25 40.282C1482.4 40.59 1480.48 40.7953 1478.49 40.898C1476.51 40.986 1474.32 41.0373 1471.93 41.052L1471.71 39.248H1474.22V29.964H1472.22V28.226H1483.22ZM1479.15 39.116V29.964H1476.29V39.204L1479.15 39.116ZM1508.1 37.686V39.402H1500.29V45.716H1498.13V39.402H1490.46V37.686H1508.1ZM1494.72 27.038V29.524H1503.77V27.038H1505.88V35.53H1492.59V27.038H1494.72ZM1494.72 33.77H1503.77V31.24H1494.72V33.77ZM1519.89 27.72V28.82C1519.89 29.788 1519.86 30.712 1519.8 31.592C1519.75 32.472 1519.61 33.462 1519.41 34.562L1517.3 34.32C1517.49 33.396 1517.61 32.56 1517.67 31.812C1517.73 31.064 1517.77 30.2793 1517.78 29.458H1510.12V27.72H1519.89ZM1514.99 32.12V36.102C1517.32 35.9993 1519.34 35.8307 1521.06 35.596L1521.19 37.136C1519.39 37.4587 1517.48 37.6787 1515.47 37.796C1513.46 37.8987 1511.36 37.95 1509.18 37.95L1508.94 36.212C1510.61 36.212 1511.91 36.1973 1512.85 36.168V32.12H1514.99ZM1524.42 26.246V32.428H1527.04V34.21H1524.42V40.876H1522.27V26.246H1524.42ZM1514.02 39.556V43.56H1525.06V45.32H1511.88V39.556H1514.02ZM1543.85 26.224V45.738H1541.69V26.224H1543.85ZM1537.93 28.006V35.178H1531.09V39.314C1532.84 39.2993 1534.4 39.248 1535.78 39.16C1537.16 39.072 1538.58 38.9033 1540.04 38.654L1540.26 40.392C1538.68 40.6707 1537.14 40.8613 1535.64 40.964C1534.16 41.052 1532.47 41.096 1530.56 41.096H1528.91V33.418H1535.75V29.744H1528.87V28.006H1537.93ZM1552.76 27.61C1553.76 27.61 1554.65 27.808 1555.45 28.204C1556.25 28.6 1556.88 29.1573 1557.34 29.876C1557.79 30.58 1558.02 31.3793 1558.02 32.274C1558.02 33.1833 1557.79 33.99 1557.34 34.694C1556.88 35.398 1556.25 35.948 1555.45 36.344C1554.65 36.74 1553.76 36.938 1552.76 36.938C1551.75 36.938 1550.84 36.74 1550.03 36.344C1549.24 35.948 1548.62 35.398 1548.16 34.694C1547.71 33.99 1547.48 33.1833 1547.48 32.274C1547.48 31.3793 1547.71 30.58 1548.16 29.876C1548.62 29.1573 1549.24 28.6 1550.03 28.204C1550.84 27.808 1551.75 27.61 1552.76 27.61ZM1552.76 29.48C1551.84 29.48 1551.07 29.7367 1550.47 30.25C1549.89 30.7487 1549.59 31.4233 1549.59 32.274C1549.59 33.11 1549.89 33.792 1550.47 34.32C1551.07 34.8333 1551.84 35.09 1552.76 35.09C1553.67 35.09 1554.42 34.8333 1555.01 34.32C1555.61 33.792 1555.91 33.11 1555.91 32.274C1555.91 31.4233 1555.61 30.7487 1555.03 30.25C1554.44 29.7367 1553.69 29.48 1552.76 29.48ZM1562.46 26.224V45.738H1560.31V26.224H1562.46ZM1546.56 39.82C1549.02 39.82 1551.27 39.7833 1553.29 39.71C1555.33 39.622 1557.27 39.4387 1559.12 39.16L1559.27 40.722C1557.37 41.0887 1555.41 41.3307 1553.4 41.448C1551.39 41.5507 1549.2 41.602 1546.82 41.602L1546.56 39.82ZM1576.82 27.874V31.086C1576.82 32.274 1577.03 33.44 1577.46 34.584C1577.88 35.728 1578.48 36.7473 1579.24 37.642C1580 38.522 1580.88 39.182 1581.88 39.622L1580.6 41.36C1579.5 40.832 1578.53 40.0547 1577.7 39.028C1576.86 38.0013 1576.22 36.8207 1575.76 35.486C1575.31 36.938 1574.65 38.2067 1573.8 39.292C1572.95 40.3773 1571.96 41.1987 1570.81 41.756L1569.51 39.974C1570.51 39.5193 1571.4 38.83 1572.18 37.906C1572.95 36.982 1573.55 35.926 1573.98 34.738C1574.42 33.5353 1574.64 32.318 1574.64 31.086V27.874H1576.82ZM1585.66 26.224V45.738H1583.51V26.224H1585.66ZM1599.28 27.522V29.282H1595.17V29.678C1595.17 30.954 1595.58 32.1273 1596.4 33.198C1597.22 34.254 1598.36 35.0313 1599.81 35.53L1598.69 37.224C1597.63 36.8573 1596.71 36.322 1595.94 35.618C1595.16 34.8993 1594.55 34.056 1594.11 33.088C1593.69 34.1293 1593.06 35.0387 1592.24 35.816C1591.43 36.5933 1590.47 37.18 1589.36 37.576L1588.19 35.882C1589.69 35.3833 1590.86 34.5693 1591.71 33.44C1592.58 32.296 1593.01 31.0493 1593.01 29.7V29.282H1588.83V27.522H1599.28ZM1603.55 26.246V31.218H1606.32V33.022H1603.55V37.95H1601.39V26.246H1603.55ZM1603.55 38.94V45.716H1601.39V40.678H1590.79V38.94H1603.55Z" fill="#2A9BF8"/>
<g clip-path="url(#clip3_547_2538)">
<path d="M1747.73 36.6116C1747.73 31.3478 1751.23 27.615 1756.18 27.615C1757.3 27.6206 1758.4 27.9058 1759.38 28.4449C1760.36 28.984 1761.19 29.76 1761.8 30.7027V18.498H1764.96V45.4189H1761.8V42.5204C1761.18 43.4605 1760.34 44.2362 1759.36 44.7814C1758.38 45.3265 1757.28 45.6249 1756.15 45.6511C1751.23 45.6511 1747.73 41.8839 1747.73 36.6116ZM1761.8 36.6116C1761.8 33.2142 1759.23 30.3931 1756.33 30.3931C1753.1 30.3931 1750.89 32.9734 1750.89 36.6116C1750.89 40.2498 1753.1 42.8644 1756.33 42.8644C1759.26 42.8644 1761.8 40.0864 1761.8 36.6116Z" fill="white"/>
<path d="M1768.91 36.7224C1768.91 31.4586 1772.41 27.7172 1777.31 27.7172C1778.4 27.7467 1779.46 28.0321 1780.42 28.5505C1781.38 29.0689 1782.2 29.8058 1782.82 30.7018V27.6484H1785.98V45.4179H1782.82V42.5624C1782.23 43.4976 1781.42 44.27 1780.46 44.8093C1779.5 45.3486 1778.41 45.6376 1777.31 45.6502C1772.44 45.6502 1768.91 41.883 1768.91 36.7224ZM1782.87 36.7224C1782.87 33.1358 1780.29 30.5039 1777.42 30.5039C1774.27 30.5039 1772.06 33.024 1772.06 36.7224C1772.06 40.4208 1774.27 42.8979 1777.42 42.8979C1780.28 42.8635 1782.82 40.2746 1782.87 36.7224Z" fill="white"/>
<path d="M1792.78 53.5028L1796.51 44.3944L1789.36 27.6484H1792.79L1798.16 40.6186L1803.3 27.6484H1806.73L1796.24 53.5028H1792.78Z" fill="white"/>
<path d="M1815.4 42.7858C1817.53 42.7858 1819.05 41.8741 1819.05 40.3518C1819.05 38.8294 1817.07 38.3305 1815.1 37.6425C1812.67 36.7824 1809.25 35.7331 1809.25 32.3357C1809.25 29.3254 1812.01 27.459 1815.55 27.459C1817.65 27.459 1820.99 28.6803 1821.82 31.8455L1819.05 32.8002C1818.84 32.0424 1818.38 31.3791 1817.75 30.9206C1817.11 30.4621 1816.34 30.2361 1815.55 30.2801C1813.73 30.2801 1812.4 31.0456 1812.4 32.3357C1812.4 33.7893 1814.23 34.2881 1816.35 35.0106C1818.92 35.8707 1822.21 36.9544 1822.21 40.3518C1822.21 43.5169 1819.32 45.5725 1815.4 45.5725C1813.96 45.5569 1812.55 45.1483 1811.33 44.3906C1810.1 43.633 1809.11 42.5549 1808.45 41.2721L1811.02 39.7497C1811.41 40.6052 1812.02 41.3391 1812.79 41.8736C1813.56 42.4081 1814.47 42.7233 1815.4 42.7858Z" fill="white"/>
<path d="M1829.5 36.0783L1836.73 27.6494H1841.02L1834.16 35.5451L1841.11 45.4189H1837.24L1831.91 37.9447L1829.52 40.8088V45.4189H1826.37V18.498H1829.52L1829.5 36.0783Z" fill="white"/>
<path d="M1848.74 20.7079C1848.74 21.2188 1848.54 21.7089 1848.18 22.0702C1847.82 22.4315 1847.33 22.6345 1846.82 22.6345C1846.31 22.6345 1845.82 22.4315 1845.46 22.0702C1845.1 21.7089 1844.9 21.2188 1844.9 20.7079C1844.9 20.1969 1845.1 19.7068 1845.46 19.3455C1845.82 18.9842 1846.31 18.7812 1846.82 18.7812C1847.33 18.7812 1847.82 18.9842 1848.18 19.3455C1848.54 19.7068 1848.74 20.1969 1848.74 20.7079ZM1848.4 27.5886V45.3925H1845.24V27.6144L1848.4 27.5886Z" fill="white"/>
<path d="M1861.66 30.4709C1861.03 30.4571 1860.41 30.5694 1859.83 30.8013C1859.25 31.0332 1858.72 31.3798 1858.27 31.8208C1857.82 32.2618 1857.47 32.7882 1857.23 33.3688C1856.99 33.9495 1856.87 34.5726 1856.87 35.2014V45.4193H1853.71V27.6498H1856.87V30.2301C1857.47 29.4765 1858.22 28.8574 1859.07 28.4129C1859.92 27.9684 1860.86 27.7084 1861.82 27.6498C1862.78 27.6121 1863.74 27.7777 1864.64 28.1359C1865.54 28.4941 1866.36 29.0369 1867.03 29.7296C1867.71 30.4222 1868.23 31.2493 1868.57 32.1576C1868.91 33.066 1869.06 34.0354 1869 35.0036V45.4193H1865.89V35.2014C1865.89 32.3373 1864.17 30.4709 1861.66 30.4709Z" fill="white"/>
<path d="M1735.58 41.0233C1735.58 45.0658 1733.09 49.9339 1728.64 53.6667C1722.23 59.0853 1714.14 60.1002 1710.63 55.9029C1707.63 52.3336 1708.91 46.1839 1713.35 41.0233C1710.52 37.8066 1709 34.1426 1709 30.9517C1709 26.9092 1711.48 22.0411 1715.94 18.3083C1722.38 12.8897 1730.43 11.9092 1733.98 16.0807C1736.97 19.6501 1735.7 25.8341 1731.26 30.9345C1734.08 34.1942 1735.63 37.884 1735.58 41.0233Z" fill="white"/>
</g>
<rect width="1920" height="86" transform="translate(1920 -7)" fill="#C3E4FF"/>
<path d="M1979.73 35.948V33.286C1978.97 33.418 1978.21 33.506 1977.46 33.55C1976.72 33.5793 1975.81 33.594 1974.74 33.594H1973.59V27.038H1980.21V28.776H1975.79V31.9C1977.55 31.856 1979.11 31.6873 1980.46 31.394L1980.65 33.11L1980.43 33.154H1981.34V27.038H1987.91V28.776H1983.49V31.878H1988V33.594H1981.89V35.948H1989.56V37.686H1971.99V35.948H1979.73ZM1987.34 39.6V45.826H1985.16V41.36H1973.88V39.6H1987.34ZM1998.41 35.948V33.286C1997.65 33.418 1996.89 33.506 1996.14 33.55C1995.4 33.5793 1994.49 33.594 1993.42 33.594H1992.27V27.038H1998.89V28.776H1994.47V31.9C1996.23 31.856 1997.79 31.6873 1999.14 31.394L1999.33 33.11L1999.11 33.154H2000.02V27.038H2006.59V28.776H2002.17V31.878H2006.68V33.594H2000.57V35.948H2008.24V37.686H1990.67V35.948H1998.41ZM2006.02 39.6V45.826H2003.84V41.36H1992.56V39.6H2006.02ZM2024.44 26.246V34.1H2027.47V35.904H2024.44V45.716H2022.28V26.246H2024.44ZM2013.92 29.26V26.51H2016.1V29.26H2020.7V31.02H2009.23V29.26H2013.92ZM2015.02 32.45C2015.94 32.45 2016.77 32.6407 2017.51 33.022C2018.24 33.4033 2018.81 33.9387 2019.22 34.628C2019.63 35.3173 2019.84 36.102 2019.84 36.982C2019.84 37.862 2019.63 38.6467 2019.22 39.336C2018.81 40.0107 2018.24 40.546 2017.51 40.942C2016.77 41.3233 2015.94 41.514 2015.02 41.514C2014.11 41.514 2013.29 41.3233 2012.56 40.942C2011.82 40.546 2011.24 40.0033 2010.82 39.314C2010.41 38.6247 2010.2 37.8473 2010.2 36.982C2010.2 36.102 2010.41 35.3173 2010.82 34.628C2011.24 33.9387 2011.82 33.4033 2012.56 33.022C2013.29 32.6407 2014.11 32.45 2015.02 32.45ZM2015.02 34.21C2014.21 34.21 2013.55 34.4667 2013.04 34.98C2012.54 35.4787 2012.29 36.146 2012.29 36.982C2012.29 37.8033 2012.54 38.4707 2013.04 38.984C2013.55 39.4827 2014.21 39.732 2015.02 39.732C2015.83 39.732 2016.49 39.4827 2017 38.984C2017.51 38.4707 2017.77 37.8033 2017.77 36.982C2017.77 36.1607 2017.51 35.4933 2017 34.98C2016.49 34.4667 2015.83 34.21 2015.02 34.21ZM2043.66 28.072V29.986C2043.66 31.6433 2043.62 33.1393 2043.53 34.474C2043.46 35.794 2043.27 37.3413 2042.96 39.116L2040.78 38.874C2041.11 37.1873 2041.3 35.6913 2041.38 34.386C2041.46 33.0807 2041.51 31.614 2041.51 29.986V29.832H2029.85V28.072H2043.66ZM2034.64 41.338V34.496H2036.78V41.338H2045.62V43.12H2028.02V41.338H2034.64ZM2066.4 26.246V31.966H2069.17V33.748H2066.4V40.348H2064.25V26.246H2066.4ZM2061.19 27.742C2061.19 30.2647 2060.39 32.4353 2058.79 34.254C2057.19 36.058 2054.95 37.3927 2052.08 38.258L2051.18 36.542C2053.42 35.8673 2055.21 34.914 2056.55 33.682C2057.88 32.45 2058.64 31.0493 2058.83 29.48H2051.99V27.742H2061.19ZM2056.26 38.918V43.56H2067.19V45.32H2054.1V38.918H2056.26ZM2086 26.246V40.678H2083.85V35.376H2080.92V33.616H2083.85V31.57H2080.92V29.832H2083.85V26.246H2086ZM2080.68 27.742V29.48H2078.9V35.926C2079.92 35.838 2080.68 35.7647 2081.16 35.706L2081.27 37.312C2078.53 37.752 2074.82 37.972 2070.14 37.972L2069.92 36.168H2072.21V29.48H2070.43V27.742H2080.68ZM2075.53 39.534V43.56H2086.49V45.32H2073.4V39.534H2075.53ZM2076.81 36.036V29.48H2074.3V36.124L2076.81 36.036ZM2103.76 26.268V32.472H2106.53V34.276H2103.76V40.832H2101.6V26.268H2103.76ZM2093.26 28.49V26.246H2095.44V28.49H2100.08V30.206H2088.62V28.49H2093.26ZM2094.34 31.152C2095.27 31.152 2096.09 31.306 2096.81 31.614C2097.52 31.9073 2098.08 32.3327 2098.48 32.89C2098.87 33.4473 2099.07 34.0927 2099.07 34.826C2099.07 35.5447 2098.87 36.1827 2098.48 36.74C2098.08 37.2973 2097.52 37.73 2096.81 38.038C2096.09 38.346 2095.27 38.5 2094.34 38.5C2093.43 38.5 2092.62 38.346 2091.9 38.038C2091.2 37.73 2090.65 37.2973 2090.25 36.74C2089.85 36.1827 2089.66 35.5447 2089.66 34.826C2089.66 34.0927 2089.85 33.4473 2090.25 32.89C2090.65 32.3327 2091.2 31.9073 2091.9 31.614C2092.6 31.306 2093.42 31.152 2094.34 31.152ZM2094.34 32.802C2093.55 32.802 2092.91 32.9853 2092.43 33.352C2091.96 33.7187 2091.72 34.21 2091.72 34.826C2091.72 35.442 2091.96 35.9333 2092.43 36.3C2092.91 36.652 2093.55 36.828 2094.34 36.828C2095.13 36.828 2095.77 36.652 2096.26 36.3C2096.74 35.9333 2096.98 35.442 2096.98 34.826C2096.98 34.21 2096.74 33.7187 2096.26 33.352C2095.77 32.9853 2095.13 32.802 2094.34 32.802ZM2093.64 39.688V43.56H2104.59V45.32H2091.48V39.688H2093.64ZM2127.82 26.246V45.716H2125.64V26.246H2127.82ZM2123.22 28.226V29.964H2121.24V38.984C2122.25 38.9107 2123.21 38.8227 2124.12 38.72L2124.25 40.282C2122.4 40.59 2120.48 40.7953 2118.49 40.898C2116.51 40.986 2114.32 41.0373 2111.93 41.052L2111.71 39.248H2114.22V29.964H2112.22V28.226H2123.22ZM2119.15 39.116V29.964H2116.29V39.204L2119.15 39.116ZM2148.1 37.686V39.402H2140.29V45.716H2138.13V39.402H2130.46V37.686H2148.1ZM2134.72 27.038V29.524H2143.77V27.038H2145.88V35.53H2132.59V27.038H2134.72ZM2134.72 33.77H2143.77V31.24H2134.72V33.77ZM2159.89 27.72V28.82C2159.89 29.788 2159.86 30.712 2159.8 31.592C2159.75 32.472 2159.61 33.462 2159.41 34.562L2157.3 34.32C2157.49 33.396 2157.61 32.56 2157.67 31.812C2157.73 31.064 2157.77 30.2793 2157.78 29.458H2150.12V27.72H2159.89ZM2154.99 32.12V36.102C2157.32 35.9993 2159.34 35.8307 2161.06 35.596L2161.19 37.136C2159.39 37.4587 2157.48 37.6787 2155.47 37.796C2153.46 37.8987 2151.36 37.95 2149.18 37.95L2148.94 36.212C2150.61 36.212 2151.91 36.1973 2152.85 36.168V32.12H2154.99ZM2164.42 26.246V32.428H2167.04V34.21H2164.42V40.876H2162.27V26.246H2164.42ZM2154.02 39.556V43.56H2165.06V45.32H2151.88V39.556H2154.02ZM2183.85 26.224V45.738H2181.69V26.224H2183.85ZM2177.93 28.006V35.178H2171.09V39.314C2172.84 39.2993 2174.4 39.248 2175.78 39.16C2177.16 39.072 2178.58 38.9033 2180.04 38.654L2180.26 40.392C2178.68 40.6707 2177.14 40.8613 2175.64 40.964C2174.16 41.052 2172.47 41.096 2170.56 41.096H2168.91V33.418H2175.75V29.744H2168.87V28.006H2177.93ZM2192.76 27.61C2193.76 27.61 2194.65 27.808 2195.45 28.204C2196.25 28.6 2196.88 29.1573 2197.34 29.876C2197.79 30.58 2198.02 31.3793 2198.02 32.274C2198.02 33.1833 2197.79 33.99 2197.34 34.694C2196.88 35.398 2196.25 35.948 2195.45 36.344C2194.65 36.74 2193.76 36.938 2192.76 36.938C2191.75 36.938 2190.84 36.74 2190.03 36.344C2189.24 35.948 2188.62 35.398 2188.16 34.694C2187.71 33.99 2187.48 33.1833 2187.48 32.274C2187.48 31.3793 2187.71 30.58 2188.16 29.876C2188.62 29.1573 2189.24 28.6 2190.03 28.204C2190.84 27.808 2191.75 27.61 2192.76 27.61ZM2192.76 29.48C2191.84 29.48 2191.07 29.7367 2190.47 30.25C2189.89 30.7487 2189.59 31.4233 2189.59 32.274C2189.59 33.11 2189.89 33.792 2190.47 34.32C2191.07 34.8333 2191.84 35.09 2192.76 35.09C2193.67 35.09 2194.42 34.8333 2195.01 34.32C2195.61 33.792 2195.91 33.11 2195.91 32.274C2195.91 31.4233 2195.61 30.7487 2195.03 30.25C2194.44 29.7367 2193.69 29.48 2192.76 29.48ZM2202.46 26.224V45.738H2200.31V26.224H2202.46ZM2186.56 39.82C2189.02 39.82 2191.27 39.7833 2193.29 39.71C2195.33 39.622 2197.27 39.4387 2199.12 39.16L2199.27 40.722C2197.37 41.0887 2195.41 41.3307 2193.4 41.448C2191.39 41.5507 2189.2 41.602 2186.82 41.602L2186.56 39.82ZM2216.82 27.874V31.086C2216.82 32.274 2217.03 33.44 2217.46 34.584C2217.88 35.728 2218.48 36.7473 2219.24 37.642C2220 38.522 2220.88 39.182 2221.88 39.622L2220.6 41.36C2219.5 40.832 2218.53 40.0547 2217.7 39.028C2216.86 38.0013 2216.22 36.8207 2215.76 35.486C2215.31 36.938 2214.65 38.2067 2213.8 39.292C2212.95 40.3773 2211.96 41.1987 2210.81 41.756L2209.51 39.974C2210.51 39.5193 2211.4 38.83 2212.18 37.906C2212.95 36.982 2213.55 35.926 2213.98 34.738C2214.42 33.5353 2214.64 32.318 2214.64 31.086V27.874H2216.82ZM2225.66 26.224V45.738H2223.51V26.224H2225.66ZM2239.28 27.522V29.282H2235.17V29.678C2235.17 30.954 2235.58 32.1273 2236.4 33.198C2237.22 34.254 2238.36 35.0313 2239.81 35.53L2238.69 37.224C2237.63 36.8573 2236.71 36.322 2235.94 35.618C2235.16 34.8993 2234.55 34.056 2234.11 33.088C2233.69 34.1293 2233.06 35.0387 2232.24 35.816C2231.43 36.5933 2230.47 37.18 2229.36 37.576L2228.19 35.882C2229.69 35.3833 2230.86 34.5693 2231.71 33.44C2232.58 32.296 2233.01 31.0493 2233.01 29.7V29.282H2228.83V27.522H2239.28ZM2243.55 26.246V31.218H2246.32V33.022H2243.55V37.95H2241.39V26.246H2243.55ZM2243.55 38.94V45.716H2241.39V40.678H2230.79V38.94H2243.55Z" fill="#2A9BF8"/>
<g clip-path="url(#clip4_547_2538)">
<path d="M2387.73 36.6254C2387.73 31.2447 2391.23 27.4289 2396.18 27.4289C2397.3 27.4347 2398.4 27.7262 2399.38 28.2773C2400.36 28.8283 2401.19 29.6216 2401.8 30.5853V18.1094H2404.96V45.6285H2401.8V42.6656C2401.18 43.6266 2400.34 44.4195 2399.36 44.9768C2398.38 45.534 2397.28 45.8391 2396.15 45.8659C2391.23 45.8659 2387.73 42.015 2387.73 36.6254ZM2401.8 36.6254C2401.8 33.1526 2399.23 30.2688 2396.33 30.2688C2393.1 30.2688 2390.89 32.9064 2390.89 36.6254C2390.89 40.3445 2393.1 43.0173 2396.33 43.0173C2399.26 43.0173 2401.8 40.1774 2401.8 36.6254Z" fill="white"/>
<path d="M2408.91 36.7385C2408.91 31.3578 2412.41 27.5332 2417.31 27.5332C2418.4 27.5633 2419.46 27.8551 2420.42 28.385C2421.38 28.9149 2422.2 29.6682 2422.82 30.5841V27.4629H2425.98V45.6273H2422.82V42.7083C2422.23 43.6642 2421.42 44.4538 2420.46 45.0051C2419.5 45.5564 2418.41 45.8519 2417.31 45.8647C2412.44 45.8647 2408.91 42.0137 2408.91 36.7385ZM2422.87 36.7385C2422.87 33.0722 2420.29 30.3819 2417.42 30.3819C2414.27 30.3819 2412.06 32.9579 2412.06 36.7385C2412.06 40.5191 2414.27 43.0512 2417.42 43.0512C2420.28 43.016 2422.82 40.3696 2422.87 36.7385Z" fill="white"/>
<path d="M2432.78 53.8918L2436.51 44.581L2429.36 27.4629H2432.79L2438.16 40.7213L2443.3 27.4629H2446.73L2436.24 53.8918H2432.78Z" fill="white"/>
<path d="M2455.4 42.937C2457.53 42.937 2459.05 42.005 2459.05 40.4488C2459.05 38.8926 2457.07 38.3827 2455.1 37.6793C2452.67 36.8001 2449.25 35.7275 2449.25 32.2546C2449.25 29.1774 2452.01 27.2695 2455.55 27.2695C2457.65 27.2695 2460.99 28.518 2461.82 31.7535L2459.05 32.7294C2458.84 31.9548 2458.38 31.2768 2457.75 30.8081C2457.11 30.3394 2456.34 30.1083 2455.55 30.1533C2453.73 30.1533 2452.4 30.9358 2452.4 32.2546C2452.4 33.7405 2454.23 34.2504 2456.35 34.989C2458.92 35.8682 2462.21 36.976 2462.21 40.4488C2462.21 43.6843 2459.32 45.7856 2455.4 45.7856C2453.96 45.7696 2452.55 45.3519 2451.33 44.5774C2450.1 43.8029 2449.11 42.7009 2448.45 41.3896L2451.02 39.8334C2451.41 40.7079 2452.02 41.4581 2452.79 42.0045C2453.56 42.5509 2454.47 42.8731 2455.4 42.937Z" fill="white"/>
<path d="M2469.5 36.0803L2476.73 27.4641H2481.02L2474.16 35.5352L2481.11 45.6285H2477.24L2471.91 37.9882L2469.52 40.916V45.6285H2466.37V18.1094H2469.52L2469.5 36.0803Z" fill="white"/>
<path d="M2488.74 20.3679C2488.74 20.8902 2488.54 21.3911 2488.18 21.7604C2487.82 22.1298 2487.33 22.3373 2486.82 22.3373C2486.31 22.3373 2485.82 22.1298 2485.46 21.7604C2485.1 21.3911 2484.9 20.8902 2484.9 20.3679C2484.9 19.8455 2485.1 19.3446 2485.46 18.9753C2485.82 18.6059 2486.31 18.3984 2486.82 18.3984C2487.33 18.3984 2487.82 18.6059 2488.18 18.9753C2488.54 19.3446 2488.74 19.8455 2488.74 20.3679ZM2488.4 27.4015V45.601H2485.24V27.4279L2488.4 27.4015Z" fill="white"/>
<path d="M2501.66 30.3462C2501.03 30.3321 2500.41 30.4469 2499.83 30.6839C2499.25 30.921 2498.72 31.2753 2498.27 31.7261C2497.82 32.1769 2497.47 32.715 2497.23 33.3086C2496.99 33.9021 2496.87 34.5391 2496.87 35.1818V45.6268H2493.71V27.4624H2496.87V30.1C2497.47 29.3297 2498.22 28.6968 2499.07 28.2425C2499.92 27.7881 2500.86 27.5223 2501.82 27.4624C2502.78 27.4239 2503.74 27.5931 2504.64 27.9593C2505.54 28.3254 2506.36 28.8804 2507.03 29.5884C2507.71 30.2965 2508.23 31.1419 2508.57 32.0704C2508.91 32.9989 2509.06 33.9899 2509 34.9796V45.6268H2505.89V35.1818C2505.89 32.2541 2504.17 30.3462 2501.66 30.3462Z" fill="white"/>
<path d="M2375.58 41.135C2375.58 45.2673 2373.09 50.2436 2368.64 54.0593C2362.23 59.5983 2354.14 60.6358 2350.63 56.3453C2347.63 52.6966 2348.91 46.4102 2353.35 41.135C2350.52 37.8468 2349 34.1014 2349 30.8395C2349 26.7073 2351.48 21.731 2355.94 17.9152C2362.38 12.3762 2370.43 11.3739 2373.98 15.6381C2376.97 19.2868 2375.7 25.6083 2371.26 30.8219C2374.08 34.1541 2375.63 37.9259 2375.58 41.135Z" fill="white"/>
</g>
<path d="M2619.73 35.948V33.286C2618.97 33.418 2618.21 33.506 2617.46 33.55C2616.72 33.5793 2615.81 33.594 2614.74 33.594H2613.59V27.038H2620.21V28.776H2615.79V31.9C2617.55 31.856 2619.11 31.6873 2620.46 31.394L2620.65 33.11L2620.43 33.154H2621.34V27.038H2627.91V28.776H2623.49V31.878H2628V33.594H2621.89V35.948H2629.56V37.686H2611.99V35.948H2619.73ZM2627.34 39.6V45.826H2625.16V41.36H2613.88V39.6H2627.34ZM2638.41 35.948V33.286C2637.65 33.418 2636.89 33.506 2636.14 33.55C2635.4 33.5793 2634.49 33.594 2633.42 33.594H2632.27V27.038H2638.89V28.776H2634.47V31.9C2636.23 31.856 2637.79 31.6873 2639.14 31.394L2639.33 33.11L2639.11 33.154H2640.02V27.038H2646.59V28.776H2642.17V31.878H2646.68V33.594H2640.57V35.948H2648.24V37.686H2630.67V35.948H2638.41ZM2646.02 39.6V45.826H2643.84V41.36H2632.56V39.6H2646.02ZM2664.44 26.246V34.1H2667.47V35.904H2664.44V45.716H2662.28V26.246H2664.44ZM2653.92 29.26V26.51H2656.1V29.26H2660.7V31.02H2649.23V29.26H2653.92ZM2655.02 32.45C2655.94 32.45 2656.77 32.6407 2657.51 33.022C2658.24 33.4033 2658.81 33.9387 2659.22 34.628C2659.63 35.3173 2659.84 36.102 2659.84 36.982C2659.84 37.862 2659.63 38.6467 2659.22 39.336C2658.81 40.0107 2658.24 40.546 2657.51 40.942C2656.77 41.3233 2655.94 41.514 2655.02 41.514C2654.11 41.514 2653.29 41.3233 2652.56 40.942C2651.82 40.546 2651.24 40.0033 2650.82 39.314C2650.41 38.6247 2650.2 37.8473 2650.2 36.982C2650.2 36.102 2650.41 35.3173 2650.82 34.628C2651.24 33.9387 2651.82 33.4033 2652.56 33.022C2653.29 32.6407 2654.11 32.45 2655.02 32.45ZM2655.02 34.21C2654.21 34.21 2653.55 34.4667 2653.04 34.98C2652.54 35.4787 2652.29 36.146 2652.29 36.982C2652.29 37.8033 2652.54 38.4707 2653.04 38.984C2653.55 39.4827 2654.21 39.732 2655.02 39.732C2655.83 39.732 2656.49 39.4827 2657 38.984C2657.51 38.4707 2657.77 37.8033 2657.77 36.982C2657.77 36.1607 2657.51 35.4933 2657 34.98C2656.49 34.4667 2655.83 34.21 2655.02 34.21ZM2683.66 28.072V29.986C2683.66 31.6433 2683.62 33.1393 2683.53 34.474C2683.46 35.794 2683.27 37.3413 2682.96 39.116L2680.78 38.874C2681.11 37.1873 2681.3 35.6913 2681.38 34.386C2681.46 33.0807 2681.51 31.614 2681.51 29.986V29.832H2669.85V28.072H2683.66ZM2674.64 41.338V34.496H2676.78V41.338H2685.62V43.12H2668.02V41.338H2674.64ZM2706.4 26.246V31.966H2709.17V33.748H2706.4V40.348H2704.25V26.246H2706.4ZM2701.19 27.742C2701.19 30.2647 2700.39 32.4353 2698.79 34.254C2697.19 36.058 2694.95 37.3927 2692.08 38.258L2691.18 36.542C2693.42 35.8673 2695.21 34.914 2696.55 33.682C2697.88 32.45 2698.64 31.0493 2698.83 29.48H2691.99V27.742H2701.19ZM2696.26 38.918V43.56H2707.19V45.32H2694.1V38.918H2696.26ZM2726 26.246V40.678H2723.85V35.376H2720.92V33.616H2723.85V31.57H2720.92V29.832H2723.85V26.246H2726ZM2720.68 27.742V29.48H2718.9V35.926C2719.92 35.838 2720.68 35.7647 2721.16 35.706L2721.27 37.312C2718.53 37.752 2714.82 37.972 2710.14 37.972L2709.92 36.168H2712.21V29.48H2710.43V27.742H2720.68ZM2715.53 39.534V43.56H2726.49V45.32H2713.4V39.534H2715.53ZM2716.81 36.036V29.48H2714.3V36.124L2716.81 36.036ZM2743.76 26.268V32.472H2746.53V34.276H2743.76V40.832H2741.6V26.268H2743.76ZM2733.26 28.49V26.246H2735.44V28.49H2740.08V30.206H2728.62V28.49H2733.26ZM2734.34 31.152C2735.27 31.152 2736.09 31.306 2736.81 31.614C2737.52 31.9073 2738.08 32.3327 2738.48 32.89C2738.87 33.4473 2739.07 34.0927 2739.07 34.826C2739.07 35.5447 2738.87 36.1827 2738.48 36.74C2738.08 37.2973 2737.52 37.73 2736.81 38.038C2736.09 38.346 2735.27 38.5 2734.34 38.5C2733.43 38.5 2732.62 38.346 2731.9 38.038C2731.2 37.73 2730.65 37.2973 2730.25 36.74C2729.85 36.1827 2729.66 35.5447 2729.66 34.826C2729.66 34.0927 2729.85 33.4473 2730.25 32.89C2730.65 32.3327 2731.2 31.9073 2731.9 31.614C2732.6 31.306 2733.42 31.152 2734.34 31.152ZM2734.34 32.802C2733.55 32.802 2732.91 32.9853 2732.43 33.352C2731.96 33.7187 2731.72 34.21 2731.72 34.826C2731.72 35.442 2731.96 35.9333 2732.43 36.3C2732.91 36.652 2733.55 36.828 2734.34 36.828C2735.13 36.828 2735.77 36.652 2736.26 36.3C2736.74 35.9333 2736.98 35.442 2736.98 34.826C2736.98 34.21 2736.74 33.7187 2736.26 33.352C2735.77 32.9853 2735.13 32.802 2734.34 32.802ZM2733.64 39.688V43.56H2744.59V45.32H2731.48V39.688H2733.64ZM2767.82 26.246V45.716H2765.64V26.246H2767.82ZM2763.22 28.226V29.964H2761.24V38.984C2762.25 38.9107 2763.21 38.8227 2764.12 38.72L2764.25 40.282C2762.4 40.59 2760.48 40.7953 2758.49 40.898C2756.51 40.986 2754.32 41.0373 2751.93 41.052L2751.71 39.248H2754.22V29.964H2752.22V28.226H2763.22ZM2759.15 39.116V29.964H2756.29V39.204L2759.15 39.116ZM2788.1 37.686V39.402H2780.29V45.716H2778.13V39.402H2770.46V37.686H2788.1ZM2774.72 27.038V29.524H2783.77V27.038H2785.88V35.53H2772.59V27.038H2774.72ZM2774.72 33.77H2783.77V31.24H2774.72V33.77ZM2799.89 27.72V28.82C2799.89 29.788 2799.86 30.712 2799.8 31.592C2799.75 32.472 2799.61 33.462 2799.41 34.562L2797.3 34.32C2797.49 33.396 2797.61 32.56 2797.67 31.812C2797.73 31.064 2797.77 30.2793 2797.78 29.458H2790.12V27.72H2799.89ZM2794.99 32.12V36.102C2797.32 35.9993 2799.34 35.8307 2801.06 35.596L2801.19 37.136C2799.39 37.4587 2797.48 37.6787 2795.47 37.796C2793.46 37.8987 2791.36 37.95 2789.18 37.95L2788.94 36.212C2790.61 36.212 2791.91 36.1973 2792.85 36.168V32.12H2794.99ZM2804.42 26.246V32.428H2807.04V34.21H2804.42V40.876H2802.27V26.246H2804.42ZM2794.02 39.556V43.56H2805.06V45.32H2791.88V39.556H2794.02ZM2823.85 26.224V45.738H2821.69V26.224H2823.85ZM2817.93 28.006V35.178H2811.09V39.314C2812.84 39.2993 2814.4 39.248 2815.78 39.16C2817.16 39.072 2818.58 38.9033 2820.04 38.654L2820.26 40.392C2818.68 40.6707 2817.14 40.8613 2815.64 40.964C2814.16 41.052 2812.47 41.096 2810.56 41.096H2808.91V33.418H2815.75V29.744H2808.87V28.006H2817.93ZM2832.76 27.61C2833.76 27.61 2834.65 27.808 2835.45 28.204C2836.25 28.6 2836.88 29.1573 2837.34 29.876C2837.79 30.58 2838.02 31.3793 2838.02 32.274C2838.02 33.1833 2837.79 33.99 2837.34 34.694C2836.88 35.398 2836.25 35.948 2835.45 36.344C2834.65 36.74 2833.76 36.938 2832.76 36.938C2831.75 36.938 2830.84 36.74 2830.03 36.344C2829.24 35.948 2828.62 35.398 2828.16 34.694C2827.71 33.99 2827.48 33.1833 2827.48 32.274C2827.48 31.3793 2827.71 30.58 2828.16 29.876C2828.62 29.1573 2829.24 28.6 2830.03 28.204C2830.84 27.808 2831.75 27.61 2832.76 27.61ZM2832.76 29.48C2831.84 29.48 2831.07 29.7367 2830.47 30.25C2829.89 30.7487 2829.59 31.4233 2829.59 32.274C2829.59 33.11 2829.89 33.792 2830.47 34.32C2831.07 34.8333 2831.84 35.09 2832.76 35.09C2833.67 35.09 2834.42 34.8333 2835.01 34.32C2835.61 33.792 2835.91 33.11 2835.91 32.274C2835.91 31.4233 2835.61 30.7487 2835.03 30.25C2834.44 29.7367 2833.69 29.48 2832.76 29.48ZM2842.46 26.224V45.738H2840.31V26.224H2842.46ZM2826.56 39.82C2829.02 39.82 2831.27 39.7833 2833.29 39.71C2835.33 39.622 2837.27 39.4387 2839.12 39.16L2839.27 40.722C2837.37 41.0887 2835.41 41.3307 2833.4 41.448C2831.39 41.5507 2829.2 41.602 2826.82 41.602L2826.56 39.82ZM2856.82 27.874V31.086C2856.82 32.274 2857.03 33.44 2857.46 34.584C2857.88 35.728 2858.48 36.7473 2859.24 37.642C2860 38.522 2860.88 39.182 2861.88 39.622L2860.6 41.36C2859.5 40.832 2858.53 40.0547 2857.7 39.028C2856.86 38.0013 2856.22 36.8207 2855.76 35.486C2855.31 36.938 2854.65 38.2067 2853.8 39.292C2852.95 40.3773 2851.96 41.1987 2850.81 41.756L2849.51 39.974C2850.51 39.5193 2851.4 38.83 2852.18 37.906C2852.95 36.982 2853.55 35.926 2853.98 34.738C2854.42 33.5353 2854.64 32.318 2854.64 31.086V27.874H2856.82ZM2865.66 26.224V45.738H2863.51V26.224H2865.66ZM2879.28 27.522V29.282H2875.17V29.678C2875.17 30.954 2875.58 32.1273 2876.4 33.198C2877.22 34.254 2878.36 35.0313 2879.81 35.53L2878.69 37.224C2877.63 36.8573 2876.71 36.322 2875.94 35.618C2875.16 34.8993 2874.55 34.056 2874.11 33.088C2873.69 34.1293 2873.06 35.0387 2872.24 35.816C2871.43 36.5933 2870.47 37.18 2869.36 37.576L2868.19 35.882C2869.69 35.3833 2870.86 34.5693 2871.71 33.44C2872.58 32.296 2873.01 31.0493 2873.01 29.7V29.282H2868.83V27.522H2879.28ZM2883.55 26.246V31.218H2886.32V33.022H2883.55V37.95H2881.39V26.246H2883.55ZM2883.55 38.94V45.716H2881.39V40.678H2870.79V38.94H2883.55Z" fill="#2A9BF8"/>
<g clip-path="url(#clip5_547_2538)">
<path d="M3027.73 36.6254C3027.73 31.2447 3031.23 27.4289 3036.18 27.4289C3037.3 27.4347 3038.4 27.7262 3039.38 28.2773C3040.36 28.8283 3041.19 29.6216 3041.8 30.5853V18.1094H3044.96V45.6285H3041.8V42.6656C3041.18 43.6266 3040.34 44.4195 3039.36 44.9768C3038.38 45.534 3037.28 45.8391 3036.15 45.8659C3031.23 45.8659 3027.73 42.015 3027.73 36.6254ZM3041.8 36.6254C3041.8 33.1526 3039.23 30.2688 3036.33 30.2688C3033.1 30.2688 3030.89 32.9064 3030.89 36.6254C3030.89 40.3445 3033.1 43.0173 3036.33 43.0173C3039.26 43.0173 3041.8 40.1774 3041.8 36.6254Z" fill="white"/>
<path d="M3048.91 36.7385C3048.91 31.3578 3052.41 27.5332 3057.31 27.5332C3058.4 27.5633 3059.46 27.8551 3060.42 28.385C3061.38 28.9149 3062.2 29.6682 3062.82 30.5841V27.4629H3065.98V45.6273H3062.82V42.7083C3062.23 43.6642 3061.42 44.4538 3060.46 45.0051C3059.5 45.5564 3058.41 45.8519 3057.31 45.8647C3052.44 45.8647 3048.91 42.0137 3048.91 36.7385ZM3062.87 36.7385C3062.87 33.0722 3060.29 30.3819 3057.42 30.3819C3054.27 30.3819 3052.06 32.9579 3052.06 36.7385C3052.06 40.5191 3054.27 43.0512 3057.42 43.0512C3060.28 43.016 3062.82 40.3696 3062.87 36.7385Z" fill="white"/>
<path d="M3072.78 53.8918L3076.51 44.581L3069.36 27.4629H3072.79L3078.16 40.7213L3083.3 27.4629H3086.73L3076.24 53.8918H3072.78Z" fill="white"/>
<path d="M3095.4 42.937C3097.53 42.937 3099.05 42.005 3099.05 40.4488C3099.05 38.8926 3097.07 38.3827 3095.1 37.6793C3092.67 36.8001 3089.25 35.7275 3089.25 32.2546C3089.25 29.1774 3092.01 27.2695 3095.55 27.2695C3097.65 27.2695 3100.99 28.518 3101.82 31.7535L3099.05 32.7294C3098.84 31.9548 3098.38 31.2768 3097.75 30.8081C3097.11 30.3394 3096.34 30.1083 3095.55 30.1533C3093.73 30.1533 3092.4 30.9358 3092.4 32.2546C3092.4 33.7405 3094.23 34.2504 3096.35 34.989C3098.92 35.8682 3102.21 36.976 3102.21 40.4488C3102.21 43.6843 3099.32 45.7856 3095.4 45.7856C3093.96 45.7696 3092.55 45.3519 3091.33 44.5774C3090.1 43.8029 3089.11 42.7009 3088.45 41.3896L3091.02 39.8334C3091.41 40.7079 3092.02 41.4581 3092.79 42.0045C3093.56 42.5509 3094.47 42.8731 3095.4 42.937Z" fill="white"/>
<path d="M3109.5 36.0803L3116.73 27.4641H3121.02L3114.16 35.5352L3121.11 45.6285H3117.24L3111.91 37.9882L3109.52 40.916V45.6285H3106.37V18.1094H3109.52L3109.5 36.0803Z" fill="white"/>
<path d="M3128.74 20.3679C3128.74 20.8902 3128.54 21.3911 3128.18 21.7604C3127.82 22.1298 3127.33 22.3373 3126.82 22.3373C3126.31 22.3373 3125.82 22.1298 3125.46 21.7604C3125.1 21.3911 3124.9 20.8902 3124.9 20.3679C3124.9 19.8455 3125.1 19.3446 3125.46 18.9753C3125.82 18.6059 3126.31 18.3984 3126.82 18.3984C3127.33 18.3984 3127.82 18.6059 3128.18 18.9753C3128.54 19.3446 3128.74 19.8455 3128.74 20.3679ZM3128.4 27.4015V45.601H3125.24V27.4279L3128.4 27.4015Z" fill="white"/>
<path d="M3141.66 30.3462C3141.03 30.3321 3140.41 30.4469 3139.83 30.6839C3139.25 30.921 3138.72 31.2753 3138.27 31.7261C3137.82 32.1769 3137.47 32.715 3137.23 33.3086C3136.99 33.9021 3136.87 34.5391 3136.87 35.1818V45.6268H3133.71V27.4624H3136.87V30.1C3137.47 29.3297 3138.22 28.6968 3139.07 28.2425C3139.92 27.7881 3140.86 27.5223 3141.82 27.4624C3142.78 27.4239 3143.74 27.5931 3144.64 27.9593C3145.54 28.3254 3146.36 28.8804 3147.03 29.5884C3147.71 30.2965 3148.23 31.1419 3148.57 32.0704C3148.91 32.9989 3149.06 33.9899 3149 34.9796V45.6268H3145.89V35.1818C3145.89 32.2541 3144.17 30.3462 3141.66 30.3462Z" fill="white"/>
<path d="M3015.58 41.135C3015.58 45.2673 3013.09 50.2436 3008.64 54.0593C3002.23 59.5983 2994.14 60.6358 2990.63 56.3453C2987.63 52.6966 2988.91 46.4102 2993.35 41.135C2990.52 37.8468 2989 34.1014 2989 30.8395C2989 26.7073 2991.48 21.731 2995.94 17.9152C3002.38 12.3762 3010.43 11.3739 3013.98 15.6381C3016.97 19.2868 3015.7 25.6083 3011.26 30.8219C3014.08 34.1541 3015.63 37.9259 3015.58 41.135Z" fill="white"/>
</g>
<path d="M3259.73 35.948V33.286C3258.97 33.418 3258.21 33.506 3257.46 33.55C3256.72 33.5793 3255.81 33.594 3254.74 33.594H3253.59V27.038H3260.21V28.776H3255.79V31.9C3257.55 31.856 3259.11 31.6873 3260.46 31.394L3260.65 33.11L3260.43 33.154H3261.34V27.038H3267.91V28.776H3263.49V31.878H3268V33.594H3261.89V35.948H3269.56V37.686H3251.99V35.948H3259.73ZM3267.34 39.6V45.826H3265.16V41.36H3253.88V39.6H3267.34ZM3278.41 35.948V33.286C3277.65 33.418 3276.89 33.506 3276.14 33.55C3275.4 33.5793 3274.49 33.594 3273.42 33.594H3272.27V27.038H3278.89V28.776H3274.47V31.9C3276.23 31.856 3277.79 31.6873 3279.14 31.394L3279.33 33.11L3279.11 33.154H3280.02V27.038H3286.59V28.776H3282.17V31.878H3286.68V33.594H3280.57V35.948H3288.24V37.686H3270.67V35.948H3278.41ZM3286.02 39.6V45.826H3283.84V41.36H3272.56V39.6H3286.02ZM3304.44 26.246V34.1H3307.47V35.904H3304.44V45.716H3302.28V26.246H3304.44ZM3293.92 29.26V26.51H3296.1V29.26H3300.7V31.02H3289.23V29.26H3293.92ZM3295.02 32.45C3295.94 32.45 3296.77 32.6407 3297.51 33.022C3298.24 33.4033 3298.81 33.9387 3299.22 34.628C3299.63 35.3173 3299.84 36.102 3299.84 36.982C3299.84 37.862 3299.63 38.6467 3299.22 39.336C3298.81 40.0107 3298.24 40.546 3297.51 40.942C3296.77 41.3233 3295.94 41.514 3295.02 41.514C3294.11 41.514 3293.29 41.3233 3292.56 40.942C3291.82 40.546 3291.24 40.0033 3290.82 39.314C3290.41 38.6247 3290.2 37.8473 3290.2 36.982C3290.2 36.102 3290.41 35.3173 3290.82 34.628C3291.24 33.9387 3291.82 33.4033 3292.56 33.022C3293.29 32.6407 3294.11 32.45 3295.02 32.45ZM3295.02 34.21C3294.21 34.21 3293.55 34.4667 3293.04 34.98C3292.54 35.4787 3292.29 36.146 3292.29 36.982C3292.29 37.8033 3292.54 38.4707 3293.04 38.984C3293.55 39.4827 3294.21 39.732 3295.02 39.732C3295.83 39.732 3296.49 39.4827 3297 38.984C3297.51 38.4707 3297.77 37.8033 3297.77 36.982C3297.77 36.1607 3297.51 35.4933 3297 34.98C3296.49 34.4667 3295.83 34.21 3295.02 34.21ZM3323.66 28.072V29.986C3323.66 31.6433 3323.62 33.1393 3323.53 34.474C3323.46 35.794 3323.27 37.3413 3322.96 39.116L3320.78 38.874C3321.11 37.1873 3321.3 35.6913 3321.38 34.386C3321.46 33.0807 3321.51 31.614 3321.51 29.986V29.832H3309.85V28.072H3323.66ZM3314.64 41.338V34.496H3316.78V41.338H3325.62V43.12H3308.02V41.338H3314.64ZM3346.4 26.246V31.966H3349.17V33.748H3346.4V40.348H3344.25V26.246H3346.4ZM3341.19 27.742C3341.19 30.2647 3340.39 32.4353 3338.79 34.254C3337.19 36.058 3334.95 37.3927 3332.08 38.258L3331.18 36.542C3333.42 35.8673 3335.21 34.914 3336.55 33.682C3337.88 32.45 3338.64 31.0493 3338.83 29.48H3331.99V27.742H3341.19ZM3336.26 38.918V43.56H3347.19V45.32H3334.1V38.918H3336.26ZM3366 26.246V40.678H3363.85V35.376H3360.92V33.616H3363.85V31.57H3360.92V29.832H3363.85V26.246H3366ZM3360.68 27.742V29.48H3358.9V35.926C3359.92 35.838 3360.68 35.7647 3361.16 35.706L3361.27 37.312C3358.53 37.752 3354.82 37.972 3350.14 37.972L3349.92 36.168H3352.21V29.48H3350.43V27.742H3360.68ZM3355.53 39.534V43.56H3366.49V45.32H3353.4V39.534H3355.53ZM3356.81 36.036V29.48H3354.3V36.124L3356.81 36.036ZM3383.76 26.268V32.472H3386.53V34.276H3383.76V40.832H3381.6V26.268H3383.76ZM3373.26 28.49V26.246H3375.44V28.49H3380.08V30.206H3368.62V28.49H3373.26ZM3374.34 31.152C3375.27 31.152 3376.09 31.306 3376.81 31.614C3377.52 31.9073 3378.08 32.3327 3378.48 32.89C3378.87 33.4473 3379.07 34.0927 3379.07 34.826C3379.07 35.5447 3378.87 36.1827 3378.48 36.74C3378.08 37.2973 3377.52 37.73 3376.81 38.038C3376.09 38.346 3375.27 38.5 3374.34 38.5C3373.43 38.5 3372.62 38.346 3371.9 38.038C3371.2 37.73 3370.65 37.2973 3370.25 36.74C3369.85 36.1827 3369.66 35.5447 3369.66 34.826C3369.66 34.0927 3369.85 33.4473 3370.25 32.89C3370.65 32.3327 3371.2 31.9073 3371.9 31.614C3372.6 31.306 3373.42 31.152 3374.34 31.152ZM3374.34 32.802C3373.55 32.802 3372.91 32.9853 3372.43 33.352C3371.96 33.7187 3371.72 34.21 3371.72 34.826C3371.72 35.442 3371.96 35.9333 3372.43 36.3C3372.91 36.652 3373.55 36.828 3374.34 36.828C3375.13 36.828 3375.77 36.652 3376.26 36.3C3376.74 35.9333 3376.98 35.442 3376.98 34.826C3376.98 34.21 3376.74 33.7187 3376.26 33.352C3375.77 32.9853 3375.13 32.802 3374.34 32.802ZM3373.64 39.688V43.56H3384.59V45.32H3371.48V39.688H3373.64ZM3407.82 26.246V45.716H3405.64V26.246H3407.82ZM3403.22 28.226V29.964H3401.24V38.984C3402.25 38.9107 3403.21 38.8227 3404.12 38.72L3404.25 40.282C3402.4 40.59 3400.48 40.7953 3398.49 40.898C3396.51 40.986 3394.32 41.0373 3391.93 41.052L3391.71 39.248H3394.22V29.964H3392.22V28.226H3403.22ZM3399.15 39.116V29.964H3396.29V39.204L3399.15 39.116ZM3428.1 37.686V39.402H3420.29V45.716H3418.13V39.402H3410.46V37.686H3428.1ZM3414.72 27.038V29.524H3423.77V27.038H3425.88V35.53H3412.59V27.038H3414.72ZM3414.72 33.77H3423.77V31.24H3414.72V33.77ZM3439.89 27.72V28.82C3439.89 29.788 3439.86 30.712 3439.8 31.592C3439.75 32.472 3439.61 33.462 3439.41 34.562L3437.3 34.32C3437.49 33.396 3437.61 32.56 3437.67 31.812C3437.73 31.064 3437.77 30.2793 3437.78 29.458H3430.12V27.72H3439.89ZM3434.99 32.12V36.102C3437.32 35.9993 3439.34 35.8307 3441.06 35.596L3441.19 37.136C3439.39 37.4587 3437.48 37.6787 3435.47 37.796C3433.46 37.8987 3431.36 37.95 3429.18 37.95L3428.94 36.212C3430.61 36.212 3431.91 36.1973 3432.85 36.168V32.12H3434.99ZM3444.42 26.246V32.428H3447.04V34.21H3444.42V40.876H3442.27V26.246H3444.42ZM3434.02 39.556V43.56H3445.06V45.32H3431.88V39.556H3434.02ZM3463.85 26.224V45.738H3461.69V26.224H3463.85ZM3457.93 28.006V35.178H3451.09V39.314C3452.84 39.2993 3454.4 39.248 3455.78 39.16C3457.16 39.072 3458.58 38.9033 3460.04 38.654L3460.26 40.392C3458.68 40.6707 3457.14 40.8613 3455.64 40.964C3454.16 41.052 3452.47 41.096 3450.56 41.096H3448.91V33.418H3455.75V29.744H3448.87V28.006H3457.93ZM3472.76 27.61C3473.76 27.61 3474.65 27.808 3475.45 28.204C3476.25 28.6 3476.88 29.1573 3477.34 29.876C3477.79 30.58 3478.02 31.3793 3478.02 32.274C3478.02 33.1833 3477.79 33.99 3477.34 34.694C3476.88 35.398 3476.25 35.948 3475.45 36.344C3474.65 36.74 3473.76 36.938 3472.76 36.938C3471.75 36.938 3470.84 36.74 3470.03 36.344C3469.24 35.948 3468.62 35.398 3468.16 34.694C3467.71 33.99 3467.48 33.1833 3467.48 32.274C3467.48 31.3793 3467.71 30.58 3468.16 29.876C3468.62 29.1573 3469.24 28.6 3470.03 28.204C3470.84 27.808 3471.75 27.61 3472.76 27.61ZM3472.76 29.48C3471.84 29.48 3471.07 29.7367 3470.47 30.25C3469.89 30.7487 3469.59 31.4233 3469.59 32.274C3469.59 33.11 3469.89 33.792 3470.47 34.32C3471.07 34.8333 3471.84 35.09 3472.76 35.09C3473.67 35.09 3474.42 34.8333 3475.01 34.32C3475.61 33.792 3475.91 33.11 3475.91 32.274C3475.91 31.4233 3475.61 30.7487 3475.03 30.25C3474.44 29.7367 3473.69 29.48 3472.76 29.48ZM3482.46 26.224V45.738H3480.31V26.224H3482.46ZM3466.56 39.82C3469.02 39.82 3471.27 39.7833 3473.29 39.71C3475.33 39.622 3477.27 39.4387 3479.12 39.16L3479.27 40.722C3477.37 41.0887 3475.41 41.3307 3473.4 41.448C3471.39 41.5507 3469.2 41.602 3466.82 41.602L3466.56 39.82ZM3496.82 27.874V31.086C3496.82 32.274 3497.03 33.44 3497.46 34.584C3497.88 35.728 3498.48 36.7473 3499.24 37.642C3500 38.522 3500.88 39.182 3501.88 39.622L3500.6 41.36C3499.5 40.832 3498.53 40.0547 3497.7 39.028C3496.86 38.0013 3496.22 36.8207 3495.76 35.486C3495.31 36.938 3494.65 38.2067 3493.8 39.292C3492.95 40.3773 3491.96 41.1987 3490.81 41.756L3489.51 39.974C3490.51 39.5193 3491.4 38.83 3492.18 37.906C3492.95 36.982 3493.55 35.926 3493.98 34.738C3494.42 33.5353 3494.64 32.318 3494.64 31.086V27.874H3496.82ZM3505.66 26.224V45.738H3503.51V26.224H3505.66ZM3519.28 27.522V29.282H3515.17V29.678C3515.17 30.954 3515.58 32.1273 3516.4 33.198C3517.22 34.254 3518.36 35.0313 3519.81 35.53L3518.69 37.224C3517.63 36.8573 3516.71 36.322 3515.94 35.618C3515.16 34.8993 3514.55 34.056 3514.11 33.088C3513.69 34.1293 3513.06 35.0387 3512.24 35.816C3511.43 36.5933 3510.47 37.18 3509.36 37.576L3508.19 35.882C3509.69 35.3833 3510.86 34.5693 3511.71 33.44C3512.58 32.296 3513.01 31.0493 3513.01 29.7V29.282H3508.83V27.522H3519.28ZM3523.55 26.246V31.218H3526.32V33.022H3523.55V37.95H3521.39V26.246H3523.55ZM3523.55 38.94V45.716H3521.39V40.678H3510.79V38.94H3523.55Z" fill="#2A9BF8"/>
<g clip-path="url(#clip6_547_2538)">
<path d="M3667.73 36.6254C3667.73 31.2447 3671.23 27.4289 3676.18 27.4289C3677.3 27.4347 3678.4 27.7262 3679.38 28.2773C3680.36 28.8283 3681.19 29.6216 3681.8 30.5853V18.1094H3684.96V45.6285H3681.8V42.6656C3681.18 43.6266 3680.34 44.4195 3679.36 44.9768C3678.38 45.534 3677.28 45.8391 3676.15 45.8659C3671.23 45.8659 3667.73 42.015 3667.73 36.6254ZM3681.8 36.6254C3681.8 33.1526 3679.23 30.2688 3676.33 30.2688C3673.1 30.2688 3670.89 32.9064 3670.89 36.6254C3670.89 40.3445 3673.1 43.0173 3676.33 43.0173C3679.26 43.0173 3681.8 40.1774 3681.8 36.6254Z" fill="white"/>
<path d="M3688.91 36.7385C3688.91 31.3578 3692.41 27.5332 3697.31 27.5332C3698.4 27.5633 3699.46 27.8551 3700.42 28.385C3701.38 28.9149 3702.2 29.6682 3702.82 30.5841V27.4629H3705.98V45.6273H3702.82V42.7083C3702.23 43.6642 3701.42 44.4538 3700.46 45.0051C3699.5 45.5564 3698.41 45.8519 3697.31 45.8647C3692.44 45.8647 3688.91 42.0137 3688.91 36.7385ZM3702.87 36.7385C3702.87 33.0722 3700.29 30.3819 3697.42 30.3819C3694.27 30.3819 3692.06 32.9579 3692.06 36.7385C3692.06 40.5191 3694.27 43.0512 3697.42 43.0512C3700.28 43.016 3702.82 40.3696 3702.87 36.7385Z" fill="white"/>
<path d="M3712.78 53.8918L3716.51 44.581L3709.36 27.4629H3712.79L3718.16 40.7213L3723.3 27.4629H3726.73L3716.24 53.8918H3712.78Z" fill="white"/>
<path d="M3735.4 42.937C3737.53 42.937 3739.05 42.005 3739.05 40.4488C3739.05 38.8926 3737.07 38.3827 3735.1 37.6793C3732.67 36.8001 3729.25 35.7275 3729.25 32.2546C3729.25 29.1774 3732.01 27.2695 3735.56 27.2695C3737.65 27.2695 3740.99 28.518 3741.82 31.7535L3739.05 32.7294C3738.84 31.9548 3738.38 31.2768 3737.75 30.8081C3737.11 30.3394 3736.34 30.1083 3735.56 30.1533C3733.73 30.1533 3732.4 30.9358 3732.4 32.2546C3732.4 33.7405 3734.23 34.2504 3736.35 34.989C3738.92 35.8682 3742.21 36.976 3742.21 40.4488C3742.21 43.6843 3739.32 45.7856 3735.4 45.7856C3733.96 45.7696 3732.55 45.3519 3731.33 44.5774C3730.1 43.8029 3729.11 42.7009 3728.45 41.3896L3731.02 39.8334C3731.41 40.7079 3732.02 41.4581 3732.79 42.0045C3733.56 42.5509 3734.47 42.8731 3735.4 42.937Z" fill="white"/>
<path d="M3749.5 36.0803L3756.73 27.4641H3761.02L3754.16 35.5352L3761.11 45.6285H3757.24L3751.91 37.9882L3749.52 40.916V45.6285H3746.37V18.1094H3749.52L3749.5 36.0803Z" fill="white"/>
<path d="M3768.74 20.3679C3768.74 20.8902 3768.54 21.3911 3768.18 21.7604C3767.82 22.1298 3767.33 22.3373 3766.82 22.3373C3766.31 22.3373 3765.82 22.1298 3765.46 21.7604C3765.1 21.3911 3764.9 20.8902 3764.9 20.3679C3764.9 19.8455 3765.1 19.3446 3765.46 18.9753C3765.82 18.6059 3766.31 18.3984 3766.82 18.3984C3767.33 18.3984 3767.82 18.6059 3768.18 18.9753C3768.54 19.3446 3768.74 19.8455 3768.74 20.3679ZM3768.4 27.4015V45.601H3765.24V27.4279L3768.4 27.4015Z" fill="white"/>
<path d="M3781.66 30.3462C3781.03 30.3321 3780.41 30.4469 3779.83 30.6839C3779.25 30.921 3778.72 31.2753 3778.27 31.7261C3777.82 32.1769 3777.47 32.715 3777.23 33.3086C3776.99 33.9021 3776.87 34.5391 3776.87 35.1818V45.6268H3773.71V27.4624H3776.87V30.1C3777.47 29.3297 3778.22 28.6968 3779.07 28.2425C3779.92 27.7881 3780.86 27.5223 3781.82 27.4624C3782.78 27.4239 3783.74 27.5931 3784.64 27.9593C3785.54 28.3254 3786.36 28.8804 3787.03 29.5884C3787.71 30.2965 3788.23 31.1419 3788.57 32.0704C3788.91 32.9989 3789.06 33.9899 3789 34.9796V45.6268H3785.89V35.1818C3785.89 32.2541 3784.17 30.3462 3781.66 30.3462Z" fill="white"/>
<path d="M3655.58 41.135C3655.58 45.2673 3653.09 50.2436 3648.64 54.0593C3642.23 59.5983 3634.14 60.6358 3630.63 56.3453C3627.63 52.6966 3628.91 46.4102 3633.35 41.135C3630.52 37.8468 3629 34.1014 3629 30.8395C3629 26.7073 3631.48 21.731 3635.94 17.9152C3642.38 12.3762 3650.43 11.3739 3653.98 15.6381C3656.97 19.2868 3655.7 25.6083 3651.26 30.8219C3654.08 34.1541 3655.63 37.9259 3655.58 41.135Z" fill="white"/>
</g>
</g>
<defs>
<clipPath id="clip0_547_2538">
<rect width="3840" height="72" fill="white"/>
</clipPath>
<clipPath id="clip1_547_2538">
<rect width="160" height="45" fill="white" transform="translate(429 13.5)"/>
</clipPath>
<clipPath id="clip2_547_2538">
<rect width="160" height="45" fill="white" transform="translate(1069 13.5)"/>
</clipPath>
<clipPath id="clip3_547_2538">
<rect width="160" height="45" fill="white" transform="translate(1709 13.5)"/>
</clipPath>
<clipPath id="clip4_547_2538">
<rect width="160" height="46" fill="white" transform="translate(2349 13)"/>
</clipPath>
<clipPath id="clip5_547_2538">
<rect width="160" height="46" fill="white" transform="translate(2989 13)"/>
</clipPath>
<clipPath id="clip6_547_2538">
<rect width="160" height="46" fill="white" transform="translate(3629 13)"/>
</clipPath>
</defs>
</svg>
