<svg width="948" height="650" viewBox="0 0 948 650" fill="none" xmlns="http://www.w3.org/2000/svg">
<g filter="url(#filter0_f_510_1430)">
<ellipse cx="473.789" cy="325.143" rx="124.565" ry="273.905" transform="rotate(-91.853 473.789 325.143)" fill="#70BDFB" fill-opacity="0.32"/>
</g>
<g filter="url(#filter1_d_510_1430)">
<path d="M217 305.912C217 277.978 235.627 258.169 261.97 258.169C267.931 258.199 273.791 259.712 279.019 262.573C284.248 265.434 288.682 269.552 291.92 274.555V209.787H308.721V352.651H291.92V337.269C288.617 342.258 284.155 346.375 278.916 349.268C273.678 352.16 267.817 353.744 261.833 353.883C235.627 353.883 217 333.891 217 305.912ZM291.92 305.912C291.92 287.883 278.224 272.912 262.792 272.912C245.58 272.912 233.801 286.605 233.801 305.912C233.801 325.219 245.58 339.095 262.792 339.095C278.361 339.095 291.92 324.352 291.92 305.912Z" fill="#333333"/>
<path d="M316.552 306.505C316.552 278.572 335.179 258.717 361.294 258.717C367.086 258.873 372.761 260.388 377.86 263.139C382.959 265.89 387.34 269.8 390.65 274.555V258.352H407.451V352.651H390.65V337.497C387.513 342.46 383.183 346.559 378.056 349.421C372.928 352.283 367.166 353.817 361.294 353.883C335.362 353.883 316.552 333.891 316.552 306.505ZM390.879 306.505C390.879 287.472 377.182 273.505 361.887 273.505C345.086 273.505 333.353 286.879 333.353 306.505C333.353 326.132 345.086 339.277 361.887 339.277C377.091 339.095 390.65 325.356 390.879 306.505Z" fill="#333333"/>
<path d="M433.343 395.555L453.158 347.219L415.127 258.352H433.389L461.969 327.182L489.362 258.352H507.625L451.743 395.555H433.343Z" fill="#333333"/>
<path d="M544.872 338.684C556.195 338.684 564.321 333.846 564.321 325.767C564.321 317.688 553.775 315.041 543.274 311.389C530.308 306.825 512.092 301.257 512.092 283.227C512.092 267.252 526.838 257.348 545.694 257.348C556.834 257.348 574.639 263.829 579.068 280.626L564.321 285.692C563.212 281.671 560.758 278.151 557.369 275.718C553.98 273.285 549.86 272.085 545.694 272.319C535.969 272.319 528.893 276.381 528.893 283.227C528.893 290.941 538.617 293.588 549.94 297.423C563.636 301.987 581.122 307.738 581.122 325.767C581.122 342.564 565.737 353.473 544.872 353.473C537.209 353.39 529.713 351.221 523.19 347.201C516.666 343.18 511.362 337.458 507.846 330.651L521.542 322.572C523.615 327.112 526.878 331.007 530.986 333.843C535.093 336.68 539.891 338.352 544.872 338.684Z" fill="#333333"/>
<path d="M605.563 303.082L644.051 258.352H666.878L630.354 300.252L667.381 352.651H646.744L618.392 312.987L605.655 328.186V352.651H588.854V209.787H605.655L605.563 303.082Z" fill="#333333"/>
<path d="M695.682 221.518C695.682 224.23 694.605 226.83 692.687 228.748C690.769 230.665 688.168 231.742 685.455 231.742C682.743 231.742 680.142 230.665 678.224 228.748C676.306 226.83 675.229 224.23 675.229 221.518C675.229 218.806 676.306 216.206 678.224 214.289C680.142 212.371 682.743 211.294 685.455 211.294C688.168 211.294 690.769 212.371 692.687 214.289C694.605 216.206 695.682 218.806 695.682 221.518ZM693.856 258.033V352.514H677.055V258.17L693.856 258.033Z" fill="#333333"/>
<path d="M745.855 273.323C742.518 273.25 739.2 273.846 736.097 275.077C732.995 276.307 730.171 278.147 727.791 280.487C725.412 282.827 723.526 285.621 722.245 288.702C720.964 291.783 720.314 295.09 720.333 298.427V352.651H703.532V258.352H720.333V272.045C723.521 268.046 727.512 264.761 732.05 262.402C736.588 260.043 741.571 258.663 746.676 258.352C751.821 258.152 756.95 259.031 761.734 260.932C766.519 262.832 770.852 265.713 774.456 269.389C778.059 273.065 780.853 277.454 782.658 282.274C784.463 287.095 785.239 292.239 784.936 297.377V352.651H768.363V298.427C768.363 283.228 759.232 273.323 745.855 273.323Z" fill="#333333"/>
</g>
<path d="M261.92 117.647V123.347C261.92 128.107 261.8 132.347 261.56 136.067C261.36 139.787 260.84 144.127 260 149.087L254.06 148.547C254.98 143.867 255.54 139.687 255.74 136.007C255.98 132.287 256.1 128.067 256.1 123.347V122.387H225.26V117.647H261.92ZM268.16 153.167V158.027H220.16V153.167H268.16ZM326.09 117.347V122.567C326.09 127.087 325.97 131.167 325.73 134.807C325.53 138.407 325.01 142.627 324.17 147.467L318.23 146.807C319.11 142.207 319.65 138.127 319.85 134.567C320.09 131.007 320.21 127.007 320.21 122.567V122.147H288.41V117.347H326.09ZM301.49 153.527V134.867H307.31V153.527H331.43V158.387H283.43V153.527H301.49ZM362.211 116.807V141.887H337.071V116.807H362.211ZM342.891 121.487V137.147H356.451V121.487H342.891ZM378.111 112.427V150.347H372.171V112.427H378.111ZM349.431 146.807V159.167H379.671V163.907H343.551V146.807H349.431ZM389.632 168.467H385.432L387.532 155.567H393.472L389.632 168.467Z" fill="#767676"/>
<path d="M628.259 420.507V429.627H633.299V432.867H628.259V441.787H624.339V420.507H628.259ZM628.259 443.627V455.467H605.739V443.627H628.259ZM609.579 446.787V452.347H624.419V446.787H609.579ZM609.179 424.027V420.227H613.139V424.027H621.579V427.187H600.739V424.027H609.179ZM611.139 428.667C612.819 428.667 614.312 428.934 615.619 429.467C616.925 429.974 617.939 430.707 618.659 431.667C619.379 432.627 619.739 433.734 619.739 434.987C619.739 436.907 618.939 438.44 617.339 439.587C615.765 440.734 613.699 441.307 611.139 441.307C608.579 441.307 606.512 440.734 604.939 439.587C603.392 438.44 602.619 436.907 602.619 434.987C602.619 433.734 602.965 432.627 603.659 431.667C604.379 430.707 605.379 429.974 606.659 429.467C607.965 428.934 609.459 428.667 611.139 428.667ZM611.139 431.627C609.699 431.627 608.539 431.934 607.659 432.547C606.805 433.134 606.379 433.947 606.379 434.987C606.379 436.027 606.805 436.854 607.659 437.467C608.539 438.08 609.699 438.387 611.139 438.387C612.605 438.387 613.765 438.08 614.619 437.467C615.499 436.854 615.939 436.027 615.939 434.987C615.939 433.947 615.499 433.134 614.619 432.547C613.765 431.934 612.605 431.627 611.139 431.627ZM643.22 424.667C643.22 429.36 642.82 433.614 642.02 437.427C641.22 441.214 639.713 444.694 637.5 447.867L634.42 446.147C636.313 443.534 637.66 440.76 638.46 437.827C639.286 434.867 639.766 431.547 639.9 427.867H635.34V424.667H643.22ZM651.1 424.667C651.1 428.347 650.953 431.507 650.66 434.147H654.58V421.347H658.26V454.147H654.58V437.347H650.22C649.313 442.28 647.686 446.48 645.34 449.947L642.26 448.187C644.313 445.36 645.713 442.294 646.46 438.987C647.206 435.68 647.62 431.974 647.7 427.867H644.34V424.667H651.1ZM664.98 420.507V455.907H661.22V420.507H664.98ZM683.479 426.307V421.467H687.359V426.307H694.039V429.427H676.719V426.307H683.479ZM685.399 431.547C686.866 431.547 688.186 431.894 689.359 432.587C690.533 433.28 691.439 434.254 692.079 435.507C692.746 436.734 693.079 438.134 693.079 439.707C693.079 441.307 692.746 442.734 692.079 443.987C691.439 445.24 690.533 446.214 689.359 446.907C688.186 447.6 686.866 447.947 685.399 447.947C683.933 447.947 682.613 447.6 681.439 446.907C680.293 446.214 679.386 445.24 678.719 443.987C678.079 442.734 677.759 441.307 677.759 439.707C677.759 438.134 678.079 436.734 678.719 435.507C679.386 434.254 680.293 433.28 681.439 432.587C682.613 431.894 683.933 431.547 685.399 431.547ZM685.399 434.787C684.199 434.787 683.199 435.254 682.399 436.187C681.626 437.094 681.239 438.267 681.239 439.707C681.239 441.2 681.626 442.4 682.399 443.307C683.173 444.187 684.173 444.627 685.399 444.627C686.626 444.627 687.626 444.187 688.399 443.307C689.199 442.4 689.599 441.2 689.599 439.707C689.599 438.267 689.199 437.094 688.399 436.187C687.626 435.254 686.626 434.787 685.399 434.787ZM706.879 420.507V455.907H703.159V438.427H699.319V454.227H695.599V421.267H699.319V435.227H703.159V420.507H706.879ZM740.04 420.507V438.467H736.12V435.187H727.36V432.147H736.12V428.387H727.84C726.774 431.107 724.947 433.374 722.36 435.187C719.8 437 716.547 438.36 712.6 439.267L711.28 436.107C715.387 435.174 718.56 433.774 720.8 431.907C723.04 430.04 724.307 427.827 724.6 425.267H713.16V422.107H728.96C728.96 423.334 728.867 424.427 728.68 425.387H736.12V420.507H740.04ZM740.04 439.947V449.067H721V452.427H741.04V455.547H717.12V446.067H736.12V443.067H717.04V439.947H740.04ZM751.401 426.307V421.467H755.281V426.307H761.961V429.427H744.641V426.307H751.401ZM753.321 431.547C754.788 431.547 756.108 431.894 757.281 432.587C758.455 433.28 759.361 434.254 760.001 435.507C760.668 436.734 761.001 438.134 761.001 439.707C761.001 441.307 760.668 442.734 760.001 443.987C759.361 445.24 758.455 446.214 757.281 446.907C756.108 447.6 754.788 447.947 753.321 447.947C751.855 447.947 750.535 447.6 749.361 446.907C748.215 446.214 747.308 445.24 746.641 443.987C746.001 442.734 745.681 441.307 745.681 439.707C745.681 438.134 746.001 436.734 746.641 435.507C747.308 434.254 748.215 433.28 749.361 432.587C750.535 431.894 751.855 431.547 753.321 431.547ZM753.321 434.787C752.121 434.787 751.121 435.254 750.321 436.187C749.548 437.094 749.161 438.267 749.161 439.707C749.161 441.2 749.548 442.4 750.321 443.307C751.095 444.187 752.095 444.627 753.321 444.627C754.548 444.627 755.548 444.187 756.321 443.307C757.121 442.4 757.521 441.2 757.521 439.707C757.521 438.267 757.121 437.094 756.321 436.187C755.548 435.254 754.548 434.787 753.321 434.787ZM774.801 420.507V455.907H771.081V438.427H767.241V454.227H763.521V421.267H767.241V435.227H771.081V420.507H774.801ZM786.242 448.307V439.067C784.802 438.267 783.682 437.24 782.882 435.987C782.082 434.734 781.682 433.334 781.682 431.787C781.682 429.947 782.242 428.32 783.362 426.907C784.482 425.494 786.016 424.414 787.962 423.667C789.936 422.894 792.176 422.507 794.682 422.507C797.189 422.507 799.429 422.894 801.402 423.667C803.376 424.414 804.909 425.494 806.002 426.907C807.122 428.32 807.682 429.947 807.682 431.787C807.682 433.334 807.282 434.734 806.482 435.987C805.709 437.214 804.602 438.24 803.162 439.067V448.307H810.762V451.507H778.682V448.307H786.242ZM794.682 425.627C791.962 425.627 789.749 426.187 788.042 427.307C786.362 428.4 785.522 429.894 785.522 431.787C785.522 433.68 786.362 435.187 788.042 436.307C789.749 437.4 791.962 437.947 794.682 437.947C797.402 437.947 799.602 437.387 801.282 436.267C802.989 435.147 803.842 433.654 803.842 431.787C803.842 429.92 802.989 428.427 801.282 427.307C799.602 426.187 797.402 425.627 794.682 425.627ZM799.242 448.307V440.547C797.856 440.867 796.336 441.027 794.682 441.027C793.082 441.027 791.576 440.867 790.162 440.547V448.307H799.242ZM827.942 445.267H824.342L823.662 423.027H828.542L827.942 445.267ZM826.182 448.947C826.875 448.947 827.422 449.16 827.822 449.587C828.249 449.987 828.462 450.534 828.462 451.227C828.462 451.92 828.249 452.48 827.822 452.907C827.395 453.36 826.849 453.587 826.182 453.587C825.489 453.587 824.915 453.36 824.462 452.907C824.035 452.48 823.822 451.92 823.822 451.227C823.822 450.56 824.035 450.014 824.462 449.587C824.915 449.16 825.489 448.947 826.182 448.947Z" fill="#767676"/>
<path d="M819 325.227V327.507C819 329.8 818.933 332 818.8 334.107C818.693 336.214 818.427 338.64 818 341.387L814.12 341.067C814.52 338.587 814.787 336.347 814.92 334.347C815.053 332.347 815.12 330.36 815.12 328.387H801V325.227H819ZM810 335.387V345.987C814.133 345.854 817.787 345.587 820.96 345.187L821.16 348.027C815.667 348.934 808.453 349.387 799.52 349.387L799.08 346.147L806.16 346.107V335.387H810ZM826.8 321.507V336.107H832.16V339.387H826.8V356.907H822.92V321.507H826.8Z" fill="#767676"/>
<defs>
<filter id="filter0_f_510_1430" x="-0.00195312" y="0.32373" width="947.583" height="649.639" filterUnits="userSpaceOnUse" color-interpolation-filters="sRGB">
<feFlood flood-opacity="0" result="BackgroundImageFix"/>
<feBlend mode="normal" in="SourceGraphic" in2="BackgroundImageFix" result="shape"/>
<feGaussianBlur stdDeviation="100" result="effect1_foregroundBlur_510_1430"/>
</filter>
<filter id="filter1_d_510_1430" x="207" y="199.787" width="588" height="205.769" filterUnits="userSpaceOnUse" color-interpolation-filters="sRGB">
<feFlood flood-opacity="0" result="BackgroundImageFix"/>
<feColorMatrix in="SourceAlpha" type="matrix" values="0 0 0 0 0 0 0 0 0 0 0 0 0 0 0 0 0 0 127 0" result="hardAlpha"/>
<feOffset/>
<feGaussianBlur stdDeviation="5"/>
<feComposite in2="hardAlpha" operator="out"/>
<feColorMatrix type="matrix" values="0 0 0 0 0.0666667 0 0 0 0 0.0666667 0 0 0 0 0.0666667 0 0 0 0.2 0"/>
<feBlend mode="normal" in2="BackgroundImageFix" result="effect1_dropShadow_510_1430"/>
<feBlend mode="normal" in="SourceGraphic" in2="effect1_dropShadow_510_1430" result="shape"/>
</filter>
</defs>
</svg>
